<svg width="48" height="48" viewBox="0 0 48 48" fill="none" xmlns="http://www.w3.org/2000/svg">
<rect width="48" height="48" rx="4" fill="#FFF2F4"/>
<path d="M24.6534 31.82L29.8081 26.6667H16.3374C15.5418 26.6667 14.7787 26.9827 14.2161 27.5454C13.6535 28.108 13.3374 28.871 13.3374 29.6667V30.892C13.3374 31.6547 13.5774 32.3987 14.0187 33.02C15.8694 35.616 18.7787 37.0333 22.6667 37.292C22.6605 37.0485 22.689 36.7991 22.7521 36.544L23.3614 34.104C23.5774 33.2387 24.0241 32.4507 24.6547 31.82M24.0001 10.6733C24.8755 10.6733 25.7425 10.8458 26.5513 11.1808C27.3601 11.5158 28.0951 12.0069 28.7141 12.626C29.3332 13.245 29.8242 13.9799 30.1593 14.7888C30.4943 15.5976 30.6667 16.4645 30.6667 17.34C30.6667 18.2155 30.4943 19.0824 30.1593 19.8912C29.8242 20.7001 29.3332 21.435 28.7141 22.0541C28.0951 22.6731 27.3601 23.1642 26.5513 23.4992C25.7425 23.8342 24.8755 24.0067 24.0001 24.0067C22.232 24.0067 20.5363 23.3043 19.286 22.0541C18.0358 20.8038 17.3334 19.1081 17.3334 17.34C17.3334 15.5719 18.0358 13.8762 19.286 12.626C20.5363 11.3757 22.232 10.6733 24.0001 10.6733ZM33.4667 24.8933L25.5961 32.7627C25.1383 33.222 24.813 33.7964 24.6547 34.4253L24.0441 36.8667C23.9833 37.1096 23.9866 37.3641 24.0534 37.6053C24.1203 37.8466 24.2486 38.0665 24.4257 38.2434C24.6028 38.4204 24.8227 38.5485 25.0641 38.6152C25.3054 38.6819 25.5599 38.6849 25.8027 38.624L28.2427 38.0147C28.8722 37.8562 29.4472 37.5305 29.9067 37.072L37.7761 29.2027C38.3255 28.6268 38.6279 27.8588 38.6186 27.0628C38.6092 26.2669 38.2889 25.5062 37.726 24.9434C37.1632 24.3805 36.4025 24.0602 35.6066 24.0508C34.8107 24.0415 34.0426 24.3439 33.4667 24.8933Z" fill="#E80228"/>
</svg>
