<svg width="56" height="56" viewBox="0 0 56 56" fill="none" xmlns="http://www.w3.org/2000/svg">
<path d="M44.4903 5.68994L11.5103 5.68994C10.4385 5.68994 9.57031 6.55809 9.57031 7.62994L9.57031 48.3699C9.57031 49.4418 10.4385 50.3099 11.5103 50.3099L44.4903 50.3099C45.5622 50.3099 46.4303 49.4418 46.4303 48.3699L46.4303 7.62994C46.4303 6.55809 45.5622 5.68994 44.4903 5.68994ZM19.2703 41.5799C18.1985 41.5799 17.3303 40.7118 17.3303 39.6399C17.3303 38.5681 18.1985 37.6999 19.2703 37.6999C20.3422 37.6999 21.2103 38.5681 21.2103 39.6399C21.2103 40.7118 20.3422 41.5799 19.2703 41.5799ZM23.8361 25.7757L18.9861 30.6257C18.797 30.8149 18.5486 30.9099 18.3003 30.9099C18.052 30.9099 17.8037 30.8149 17.6145 30.6257L15.6745 28.6857C15.2953 28.3065 15.2953 27.6934 15.6745 27.3141C16.0538 26.9349 16.6668 26.9349 17.0461 27.3141L18.3003 28.5684L22.4645 24.4042C22.8438 24.0249 23.4568 24.0249 23.8361 24.4042C24.2154 24.7834 24.2154 25.3965 23.8361 25.7757ZM23.8361 14.1357L18.9861 18.9857C18.797 19.1749 18.5486 19.2699 18.3003 19.2699C18.052 19.2699 17.8037 19.1749 17.6145 18.9857L15.6745 17.0457C15.2953 16.6665 15.2953 16.0534 15.6745 15.6742C16.0538 15.2949 16.6668 15.2949 17.0461 15.6742L18.3003 16.9284L22.4645 12.7642C22.8438 12.3849 23.4568 12.3849 23.8361 12.7642C24.2154 13.1434 24.2154 13.7565 23.8361 14.1357ZM39.6403 40.6099H28.0003C27.4649 40.6099 27.0303 40.1763 27.0303 39.6399C27.0303 39.1035 27.4649 38.6699 28.0003 38.6699H39.6403C40.1758 38.6699 40.6103 39.1035 40.6103 39.6399C40.6103 40.1763 40.1758 40.6099 39.6403 40.6099ZM39.6403 28.9699L28.0003 28.9699C27.4649 28.9699 27.0303 28.5364 27.0303 27.9999C27.0303 27.4635 27.4649 27.0299 28.0003 27.0299L39.6403 27.0299C40.1758 27.0299 40.6103 27.4635 40.6103 27.9999C40.6103 28.5364 40.1758 28.9699 39.6403 28.9699ZM39.6403 17.3299H28.0003C27.4649 17.3299 27.0303 16.8964 27.0303 16.3599C27.0303 15.8235 27.4649 15.3899 28.0003 15.3899L39.6403 15.3899C40.1758 15.3899 40.6103 15.8235 40.6103 16.3599C40.6103 16.8964 40.1758 17.3299 39.6403 17.3299Z" fill="#EE0033"/>
</svg>
