<svg width="60" height="60" viewBox="0 0 60 60" fill="none" xmlns="http://www.w3.org/2000/svg">
<rect width="60" height="60" rx="4" fill="#E80228"/>
<path d="M30.5329 37.151L36.2418 31.9966H21.3226C20.4414 31.9966 19.5963 32.3128 18.9732 32.8755C18.3501 33.4382 18 34.2014 18 34.9973V36.2228C18 36.9857 18.2658 37.7298 18.7546 38.3513C20.8043 40.9478 24.0265 42.3654 28.3326 42.6242C28.3257 42.3806 28.3572 42.1312 28.4271 41.876L29.1019 39.4355C29.3412 38.57 29.8359 37.7818 30.5343 37.151M29.8093 16C30.7789 16 31.739 16.1725 32.6348 16.5076C33.5307 16.8427 34.3446 17.3338 35.0302 17.953C35.7159 18.5722 36.2597 19.3073 36.6308 20.1163C37.0019 20.9253 37.1928 21.7924 37.1928 22.668C37.1928 23.5437 37.0019 24.4108 36.6308 25.2198C36.2597 26.0288 35.7159 26.7639 35.0302 27.3831C34.3446 28.0022 33.5307 28.4934 32.6348 28.8285C31.739 29.1636 30.7789 29.3361 29.8093 29.3361C27.851 29.3361 25.973 28.6336 24.5883 27.3831C23.2036 26.1326 22.4257 24.4365 22.4257 22.668C22.4257 20.8996 23.2036 19.2035 24.5883 17.953C25.973 16.7025 27.851 16 29.8093 16ZM40.2939 30.2229L31.5769 38.0939C31.0699 38.5533 30.7097 39.1279 30.5343 39.7569L29.858 42.1987C29.7907 42.4417 29.7943 42.6962 29.8684 42.9376C29.9425 43.1789 30.0845 43.3988 30.2807 43.5758C30.4768 43.7528 30.7204 43.8809 30.9877 43.9476C31.255 44.0143 31.5368 44.0174 31.8058 43.9564L34.5082 43.347C35.2054 43.1885 35.8422 42.8627 36.3511 42.4041L45.0667 34.5332C45.6752 33.9571 46.0101 33.189 45.9998 32.3929C45.9894 31.5968 45.6346 30.8359 45.0113 30.273C44.3879 29.71 43.5454 29.3896 42.6639 29.3803C41.7824 29.3709 40.9318 29.6734 40.2939 30.2229Z" fill="white"/>
</svg>
