<svg width="48" height="49" viewBox="0 0 48 49" fill="none" xmlns="http://www.w3.org/2000/svg">
<rect y="0.293945" width="48" height="48" rx="4" fill="#FFF3EC"/>
<path d="M24.6533 32.114L29.808 26.9606H16.3373C15.5417 26.9606 14.7786 27.2767 14.216 27.8393C13.6534 28.4019 13.3373 29.165 13.3373 29.9606V31.186C13.3373 31.9486 13.5773 32.6926 14.0187 33.3139C15.8693 35.91 18.7787 37.3273 22.6667 37.586C22.6605 37.3424 22.6889 37.0931 22.752 36.838L23.3613 34.3979C23.5773 33.5326 24.024 32.7446 24.6547 32.114M24 10.9673C24.8755 10.9673 25.7424 11.1397 26.5512 11.4748C27.3601 11.8098 28.095 12.3008 28.7141 12.9199C29.3331 13.539 29.8242 14.2739 30.1592 15.0827C30.4942 15.8916 30.6667 16.7585 30.6667 17.634C30.6667 18.5094 30.4942 19.3763 30.1592 20.1852C29.8242 20.994 29.3331 21.7289 28.7141 22.348C28.095 22.9671 27.3601 23.4581 26.5512 23.7931C25.7424 24.1282 24.8755 24.3006 24 24.3006C22.2319 24.3006 20.5362 23.5982 19.286 22.348C18.0357 21.0978 17.3333 19.4021 17.3333 17.634C17.3333 15.8658 18.0357 14.1701 19.286 12.9199C20.5362 11.6697 22.2319 10.9673 24 10.9673ZM33.4667 25.1873L25.596 33.0566C25.1382 33.5159 24.813 34.0904 24.6547 34.7193L24.044 37.1606C23.9833 37.4035 23.9865 37.658 24.0534 37.8993C24.1203 38.1406 24.2485 38.3604 24.4256 38.5374C24.6027 38.7144 24.8227 38.8424 25.064 38.9091C25.3053 38.9758 25.5598 38.9789 25.8027 38.918L28.2427 38.3086C28.8722 38.1502 29.4471 37.8245 29.9067 37.366L37.776 29.4966C38.3255 28.9207 38.6279 28.1527 38.6185 27.3568C38.6091 26.5609 38.2888 25.8002 37.726 25.2373C37.1631 24.6745 36.4024 24.3541 35.6065 24.3448C34.8106 24.3354 34.0426 24.6378 33.4667 25.1873Z" fill="url(#paint0_linear_7429_2327)"/>
<defs>
<linearGradient id="paint0_linear_7429_2327" x1="13.3599" y1="24.9755" x2="38.7022" y2="24.9755" gradientUnits="userSpaceOnUse">
<stop stop-color="#FD5C00"/>
<stop offset="1" stop-color="#D40E19"/>
</linearGradient>
</defs>
</svg>
