<svg width="56" height="56" viewBox="0 0 56 56" fill="none" xmlns="http://www.w3.org/2000/svg">
<path d="M49.3404 15.3899L27.5688 15.3899L23.003 8.08578C22.8257 7.80217 22.5149 7.62988 22.1804 7.62988L6.66043 7.62988C6.12471 7.62988 5.69043 8.06417 5.69043 8.59988L5.69043 43.5199C5.69364 46.1971 7.86318 48.3667 10.5404 48.3699L45.4604 48.3699C48.1377 48.3667 50.3072 46.1971 50.3104 43.5199L50.3104 16.3599C50.3104 15.8242 49.8761 15.3899 49.3404 15.3899ZM37.132 41.0115C36.3744 41.7688 35.1464 41.7688 34.3888 41.0115L29.9947 36.6174C26.6178 38.6124 22.2841 37.7842 19.8809 34.6845C17.4776 31.5848 17.7552 27.1815 20.5286 24.408C23.302 21.6346 27.7054 21.3571 30.8051 23.7603C33.9048 26.1636 34.733 30.4973 32.7379 33.8742L37.132 38.2683C37.8894 39.0259 37.8894 40.2539 37.132 41.0115Z" fill="#EE0033"/>
<path d="M26.07 35.7499C29.2843 35.7499 31.89 33.1442 31.89 29.9299C31.89 26.7156 29.2843 24.1099 26.07 24.1099C22.8557 24.1099 20.25 26.7156 20.25 29.9299C20.25 33.1442 22.8557 35.7499 26.07 35.7499Z" fill="#EE0033"/>
</svg>
