<svg width="60" height="60" viewBox="0 0 60 60" fill="none" xmlns="http://www.w3.org/2000/svg">
<rect width="60" height="60" rx="4" fill="#ED1B2F"/>
<path d="M16 20.7848V23.3612H24.1647C24.4296 23.3609 24.6836 23.2444 24.8708 23.0373L28.3224 19.2242L26.2842 16.9702C26.0058 16.6626 25.6754 16.4186 25.3118 16.2521C24.9481 16.0857 24.5583 16 24.1647 16H20.3295C19.1812 16 18.08 16.5041 17.2681 17.4014C16.4561 18.2987 16 19.5158 16 20.7848ZM16 37.7155V25.5695H24.1647C24.9592 25.5691 25.7211 25.2202 26.2828 24.5993L30.7362 19.6806H38.3148C39.4628 19.681 40.5637 20.1853 41.3753 21.0825C42.187 21.9798 42.6429 23.1966 42.6429 24.4653V33.6668H42.6136C42.4845 32.1032 41.9468 30.6149 41.066 29.383C40.1853 28.151 38.9995 27.2287 37.6529 26.7281C36.3064 26.2276 34.8572 26.1705 33.4818 26.5638C32.1064 26.9571 30.8642 27.7838 29.9063 28.9433C28.9484 30.1028 28.3162 31.5451 28.0866 33.0945C27.8571 34.6439 28.0401 36.2337 28.6133 37.6703C29.1866 39.1069 30.1254 40.3283 31.3154 41.1858C32.5055 42.0433 33.8955 42.5 35.3161 42.5002H20.3295C19.1812 42.5002 18.08 41.9961 17.2681 41.0988C16.4561 40.2015 16 38.9845 16 37.7155ZM35.3161 42.5002C35.5408 42.5002 35.7628 42.4894 35.9822 42.4678V42.5002H35.3161ZM35.3161 41.028C36.5608 41.028 37.7745 40.5999 38.789 39.8031L42.2699 43.6486C42.3614 43.7571 42.4717 43.8441 42.5943 43.9044C42.7168 43.9648 42.8491 43.9972 42.9833 43.9998C43.1174 44.0024 43.2507 43.9752 43.3751 43.9196C43.4995 43.8641 43.6125 43.7814 43.7074 43.6766C43.8022 43.5717 43.877 43.4468 43.9273 43.3094C43.9775 43.1719 44.0022 43.0246 43.9998 42.8763C43.9975 42.7281 43.9681 42.5819 43.9135 42.4464C43.8589 42.311 43.7802 42.1891 43.682 42.088L40.2024 38.241C40.981 37.0305 41.3689 35.566 41.3039 34.0826C41.2389 32.5992 40.7248 31.1829 39.8441 30.0611C38.9634 28.9394 37.7672 28.1772 36.4475 27.8969C35.1278 27.6166 33.7612 27.8346 32.567 28.5157C31.3728 29.1968 30.4204 30.3016 29.8625 31.6527C29.3047 33.0039 29.1738 34.523 29.4909 35.9662C29.808 37.4094 30.5546 38.693 31.611 39.611C32.6674 40.5289 33.9723 41.028 35.3161 41.028ZM35.3161 38.8196C34.2562 38.8196 33.2397 38.3543 32.4902 37.526C31.7407 36.6977 31.3197 35.5743 31.3197 34.4029C31.3197 33.2316 31.7407 32.1081 32.4902 31.2799C33.2397 30.4516 34.2562 29.9862 35.3161 29.9862C36.376 29.9862 37.3926 30.4516 38.142 31.2799C38.8915 32.1081 39.3126 33.2316 39.3126 34.4029C39.3126 35.5743 38.8915 36.6977 38.142 37.526C37.3926 38.3543 36.376 38.8196 35.3161 38.8196Z" fill="white"/>
</svg>
