<svg width="48" height="48" viewBox="0 0 48 48" fill="none" xmlns="http://www.w3.org/2000/svg">
<rect width="48" height="48" rx="4" fill="#FFF2F4"/>
<path d="M10.6667 16.3333V18.6667H18.8387C19.1039 18.6664 19.3581 18.5609 19.5454 18.3733L23.0001 14.92L20.9601 12.8787C20.6815 12.6001 20.3508 12.3791 19.9868 12.2284C19.6228 12.0776 19.2327 12 18.8387 12H15.0001C13.8508 12 12.7486 12.4565 11.936 13.2692C11.1233 14.0819 10.6667 15.1841 10.6667 16.3333ZM10.6667 31.6667V20.6667H18.8387C19.6339 20.6663 20.3965 20.3503 20.9587 19.788L25.4161 15.3333H33.0014C34.1505 15.3337 35.2523 15.7904 36.0647 16.603C36.8771 17.4156 37.3334 18.5176 37.3334 19.6667V28H37.3041C37.1748 26.584 36.6367 25.236 35.7551 24.1203C34.8736 23.0046 33.6867 22.1693 32.3389 21.716C30.9912 21.2627 29.5407 21.2109 28.1641 21.5671C26.7875 21.9233 25.5442 22.6721 24.5854 23.7222C23.6267 24.7723 22.9939 26.0784 22.7642 27.4817C22.5344 28.8849 22.7175 30.3247 23.2913 31.6258C23.8651 32.9268 24.8047 34.033 25.9958 34.8096C27.1869 35.5862 28.5781 35.9998 30.0001 36H15.0001C13.8508 36 12.7486 35.5435 11.936 34.7308C11.1233 33.9181 10.6667 32.8159 10.6667 31.6667ZM30.0001 36C30.225 36 30.4472 35.9902 30.6667 35.9707V36H30.0001ZM30.0001 34.6667C31.2458 34.6667 32.4607 34.279 33.4761 33.5573L36.9601 37.04C37.0516 37.1383 37.162 37.2171 37.2847 37.2717C37.4074 37.3264 37.5398 37.3558 37.674 37.3581C37.8083 37.3605 37.9417 37.3358 38.0662 37.2855C38.1907 37.2352 38.3038 37.1603 38.3988 37.0654C38.4938 36.9704 38.5686 36.8573 38.6189 36.7328C38.6692 36.6083 38.6939 36.4749 38.6915 36.3406C38.6892 36.2064 38.6598 36.0739 38.6051 35.9513C38.5505 35.8286 38.4717 35.7182 38.3734 35.6267L34.8907 32.1427C35.67 31.0463 36.0582 29.72 35.9932 28.3765C35.9281 27.0331 35.4136 25.7504 34.5321 24.7345C33.6506 23.7186 32.4534 23.0283 31.1325 22.7745C29.8116 22.5206 28.4438 22.718 27.2485 23.3348C26.0533 23.9517 25.1 24.9523 24.5416 26.1759C23.9833 27.3996 23.8523 28.7754 24.1696 30.0824C24.487 31.3895 25.2343 32.552 26.2917 33.3833C27.349 34.2147 28.655 34.6666 30.0001 34.6667ZM30.0001 32.6667C28.9392 32.6667 27.9218 32.2452 27.1717 31.4951C26.4215 30.7449 26.0001 29.7275 26.0001 28.6667C26.0001 27.6058 26.4215 26.5884 27.1717 25.8382C27.9218 25.0881 28.9392 24.6667 30.0001 24.6667C31.0609 24.6667 32.0784 25.0881 32.8285 25.8382C33.5787 26.5884 34.0001 27.6058 34.0001 28.6667C34.0001 29.7275 33.5787 30.7449 32.8285 31.4951C32.0784 32.2452 31.0609 32.6667 30.0001 32.6667Z" fill="#E80228"/>
</svg>
