<svg width="48" height="49" viewBox="0 0 48 49" fill="none" xmlns="http://www.w3.org/2000/svg">
<rect y="0.0869141" width="48" height="48" rx="4" fill="#FFF3EC"/>
<path d="M12.7998 13.6869C12.7998 13.0503 13.0527 12.4399 13.5027 11.9898C13.9528 11.5397 14.5633 11.2869 15.1998 11.2869H26.3998C27.0363 11.2869 27.6468 11.5397 28.0969 11.9898C28.5469 12.4399 28.7998 13.0503 28.7998 13.6869V16.5557L34.0286 21.7845C34.7783 22.5344 35.1996 23.5513 35.1998 24.6117V36.0869C35.1998 36.299 35.1155 36.5025 34.9655 36.6526C34.8155 36.8026 34.612 36.8869 34.3998 36.8869C34.1876 36.8869 33.9841 36.8026 33.8341 36.6526C33.6841 36.5025 33.5998 36.299 33.5998 36.0869V24.6117C33.5992 23.9754 33.346 23.3653 32.8958 22.9157L28.7998 18.8197V23.7557L30.1662 25.1205C30.3162 25.2707 30.4004 25.4743 30.4003 25.6866C30.4001 25.8989 30.3156 26.1025 30.1654 26.2525C30.091 26.3267 30.0027 26.3856 29.9056 26.4258C29.8085 26.466 29.7044 26.4866 29.5992 26.4865C29.3869 26.4864 29.1834 26.4019 29.0334 26.2517L24.2334 21.4517C23.5582 20.7765 23.1822 20.8053 23.0174 20.8469C22.7406 20.9141 22.4958 21.1349 22.1534 21.4645C21.9934 21.6181 21.9262 21.7685 21.9582 21.9925C21.9998 22.2725 22.219 22.7733 22.9662 23.5205L24.907 25.4613L25.3646 25.9205C25.4391 25.9948 25.4983 26.083 25.5386 26.1802C25.579 26.2774 25.5998 26.3816 25.5998 26.4869C25.5998 27.7253 25.6094 28.9717 25.9518 29.9125C26.115 30.3621 26.3374 30.6901 26.6302 30.9093C26.9166 31.1237 27.339 31.2869 27.9998 31.2869C28.212 31.2869 28.4155 31.3712 28.5655 31.5212C28.7155 31.6712 28.7998 31.8747 28.7998 32.0869V34.4869C28.7998 35.1234 28.5469 35.7338 28.0969 36.1839C27.6468 36.634 27.0363 36.8869 26.3998 36.8869H15.1998C14.5633 36.8869 13.9528 36.634 13.5027 36.1839C13.0527 35.7338 12.7998 35.1234 12.7998 34.4869V13.6869ZM20.7998 20.0869C20.1279 20.0868 19.4668 20.2559 18.8776 20.5787C18.2883 20.9015 17.7898 21.3675 17.4282 21.9338C17.0665 22.5 16.8533 23.1482 16.8083 23.8186C16.7632 24.489 16.8877 25.1599 17.1704 25.7695C17.453 26.379 17.8846 26.9076 18.4254 27.3063C18.9662 27.705 19.5987 27.9611 20.2645 28.051C20.9304 28.1408 21.6081 28.0614 22.2352 27.8202C22.8623 27.579 23.4186 27.1837 23.8526 26.6709L23.7726 26.5909L21.8334 24.6517C20.9806 23.7989 20.4894 22.9973 20.3758 22.2261C20.3206 21.8757 20.3532 21.5171 20.4704 21.1823C20.5877 20.8475 20.7861 20.547 21.0478 20.3077L21.1022 20.2549L21.2526 20.1109C21.1022 20.0944 20.9511 20.0864 20.7998 20.0869ZM23.9998 34.4869V35.2869H25.5998V34.4869C25.5998 34.2747 25.6841 34.0712 25.8341 33.9212C25.9841 33.7712 26.1876 33.6869 26.3998 33.6869H27.1998V32.8229C26.6503 32.7394 26.1289 32.5248 25.6798 32.1973C25.1926 32.3505 24.767 32.6551 24.4648 33.0669C24.1627 33.4787 23.9998 33.9761 23.9998 34.4869ZM14.3998 16.0869H15.1998C15.8363 16.0869 16.4468 15.834 16.8969 15.3839C17.3469 14.9338 17.5998 14.3234 17.5998 13.6869V12.8869H15.9998V13.6869C15.9998 13.899 15.9155 14.1025 15.7655 14.2526C15.6155 14.4026 15.412 14.4869 15.1998 14.4869H14.3998V16.0869ZM23.9998 13.6869C23.9998 14.3234 24.2527 14.9338 24.7027 15.3839C25.1528 15.834 25.7633 16.0869 26.3998 16.0869H27.1998V14.4869H26.3998C26.1876 14.4869 25.9841 14.4026 25.8341 14.2526C25.6841 14.1025 25.5998 13.899 25.5998 13.6869V12.8869H23.9998V13.6869ZM17.5998 34.4869C17.5998 33.8503 17.3469 33.2399 16.8969 32.7898C16.4468 32.3397 15.8363 32.0869 15.1998 32.0869H14.3998V33.6869H15.1998C15.412 33.6869 15.6155 33.7712 15.7655 33.9212C15.9155 34.0712 15.9998 34.2747 15.9998 34.4869V35.2869H17.5998V34.4869Z" fill="url(#paint0_linear_5945_2624)"/>
<defs>
<linearGradient id="paint0_linear_5945_2624" x1="12.8198" y1="24.097" x2="35.2738" y2="24.097" gradientUnits="userSpaceOnUse">
<stop stop-color="#FD5C00"/>
<stop offset="1" stop-color="#D40E19"/>
</linearGradient>
</defs>
</svg>
