<svg width="60" height="60" viewBox="0 0 60 60" fill="none" xmlns="http://www.w3.org/2000/svg">
<rect width="60" height="60" rx="4" fill="#ED1B2F"/>
<path d="M30 16V23C30 23.795 30.3155 24.5574 30.8773 25.1199C31.439 25.6824 32.201 25.9989 32.996 26H39.996V28.07C38.9575 28.2501 38.0002 28.7476 37.256 29.494L28.682 38.068C27.7153 39.0376 27.0284 40.2503 26.694 41.578L26.09 43.996H23C22.2044 43.996 21.4413 43.6799 20.8787 43.1173C20.3161 42.5547 20 41.7916 20 40.996V19C20 18.2044 20.3161 17.4413 20.8787 16.8787C21.4413 16.3161 22.2044 16 23 16H30ZM39.996 30.12C39.4957 30.2679 39.0405 30.5388 38.672 30.908L30.1 39.48C29.3904 40.1932 28.8861 41.0845 28.64 42.06L28.034 44.482C27.983 44.6861 27.9857 44.8998 28.0418 45.1026C28.0978 45.3053 28.2053 45.4901 28.3538 45.639C28.5024 45.788 28.6869 45.896 28.8894 45.9526C29.092 46.0092 29.3058 46.0124 29.51 45.962L31.932 45.356C32.9075 45.1099 33.7988 44.6056 34.512 43.896L43.088 35.32C43.5793 34.8297 43.8931 34.1896 43.9797 33.5009C44.0664 32.8123 43.9209 32.1144 43.5663 31.5177C43.2117 30.921 42.6683 30.4596 42.022 30.2064C41.3758 29.9533 40.6615 29.9229 39.996 30.12ZM31.998 16.5V23C31.998 23.2652 32.1034 23.5196 32.2909 23.7071C32.4784 23.8946 32.7328 24 32.998 24H39.498L31.998 16.5Z" fill="white"/>
</svg>
