<svg width="56" height="56" viewBox="0 0 56 56" fill="none" xmlns="http://www.w3.org/2000/svg">
<path d="M23.3452 9.36011L32.6652 9.36011V18.6801L23.3452 18.6801V9.36011ZM9.36523 37.3201H18.6852V46.6401H9.36523L9.36523 37.3201ZM9.36523 23.3401H18.6852L18.6852 32.6601H9.36523L9.36523 23.3401ZM9.36523 9.36011L18.6852 9.36011V18.6801H9.36523L9.36523 9.36011ZM32.6652 28.9787V23.3401L23.3452 23.3401L23.3452 32.6601H28.9838L32.6652 28.9787ZM48.6956 26.3458L45.9695 23.6197C45.7904 23.4404 45.5473 23.3397 45.2938 23.3397C45.0404 23.3397 44.7973 23.4404 44.6181 23.6197L42.5677 25.6701L46.6452 29.7476L48.6956 27.6972C48.8749 27.518 48.9756 27.275 48.9756 27.0215C48.9756 26.768 48.8749 26.525 48.6956 26.3458ZM25.6752 42.5626L25.6752 46.6401H29.7527L45.2938 31.099L41.2163 27.0215L25.6752 42.5626ZM37.3252 9.36011L46.6452 9.36011V18.6801H37.3252V9.36011Z" fill="#EE0033"/>
</svg>
