<svg width="48" height="48" viewBox="0 0 48 48" fill="none" xmlns="http://www.w3.org/2000/svg">
<rect width="48" height="48" rx="4" fill="#FFF2F4"/>
<path d="M24 36C21.2 36 18.7222 35.1502 16.5667 33.4507C14.4111 31.7511 13.0111 29.5787 12.3667 26.9333C12.2778 26.6 12.3444 26.2947 12.5667 26.0173C12.7889 25.74 13.0889 25.5787 13.4667 25.5333C13.8222 25.4889 14.1444 25.5556 14.4333 25.7333C14.7222 25.9111 14.9222 26.1778 15.0333 26.5333C15.5667 28.5333 16.6667 30.1667 18.3333 31.4333C20 32.7 21.8889 33.3333 24 33.3333C26.6 33.3333 28.8058 32.428 30.6173 30.6173C32.4289 28.8067 33.3342 26.6009 33.3333 24C33.3324 21.3991 32.4271 19.1938 30.6173 17.384C28.8076 15.5742 26.6018 14.6684 24 14.6667C22.4667 14.6667 21.0333 15.0222 19.7 15.7333C18.3667 16.4444 17.2444 17.4222 16.3333 18.6667H18.6667C19.0444 18.6667 19.3613 18.7947 19.6173 19.0507C19.8733 19.3067 20.0009 19.6231 20 20C19.9991 20.3769 19.8711 20.6938 19.616 20.9507C19.3609 21.2076 19.0444 21.3351 18.6667 21.3333H13.3333C12.9556 21.3333 12.6391 21.2053 12.384 20.9493C12.1289 20.6933 12.0009 20.3769 12 20V14.6667C12 14.2889 12.128 13.9724 12.384 13.7173C12.64 13.4622 12.9564 13.3342 13.3333 13.3333C13.7102 13.3324 14.0271 13.4604 14.284 13.7173C14.5409 13.9742 14.6684 14.2907 14.6667 14.6667V16.4667C15.8 15.0444 17.1836 13.9444 18.8173 13.1667C20.4511 12.3889 22.1787 12 24 12C25.6667 12 27.228 12.3169 28.684 12.9507C30.14 13.5844 31.4067 14.4396 32.484 15.516C33.5613 16.5924 34.4169 17.8591 35.0507 19.316C35.6844 20.7729 36.0009 22.3342 36 24C35.9991 25.6658 35.6827 27.2271 35.0507 28.684C34.4187 30.1409 33.5631 31.4076 32.484 32.484C31.4049 33.5604 30.1382 34.416 28.684 35.0507C27.2298 35.6853 25.6684 36.0018 24 36ZM25.3333 23.4667L28.6667 26.8C28.9111 27.0444 29.0333 27.3556 29.0333 27.7333C29.0333 28.1111 28.9111 28.4222 28.6667 28.6667C28.4222 28.9111 28.1111 29.0333 27.7333 29.0333C27.3556 29.0333 27.0444 28.9111 26.8 28.6667L23.0667 24.9333C22.9333 24.8 22.8333 24.6502 22.7667 24.484C22.7 24.3178 22.6667 24.1453 22.6667 23.9667V18.6667C22.6667 18.2889 22.7947 17.9724 23.0507 17.7173C23.3067 17.4622 23.6231 17.3342 24 17.3333C24.3769 17.3324 24.6938 17.4604 24.9507 17.7173C25.2076 17.9742 25.3351 18.2907 25.3333 18.6667V23.4667Z" fill="#E80228"/>
</svg>
