<svg width="56" height="56" viewBox="0 0 56 56" fill="none" xmlns="http://www.w3.org/2000/svg">
<path d="M34.7314 6.33716V15.4687C34.7314 16.5402 35.6 17.4087 36.6714 17.4087L45.803 17.4087L34.7314 6.33716Z" fill="#EE0033"/>
<path d="M49.6856 46.9422L44.0596 41.3162C46.4362 37.5425 45.5979 32.5856 42.1125 29.8032C38.6272 27.0208 33.6077 27.3014 30.4542 30.4549C27.3007 33.6085 27.0201 38.6279 29.8025 42.1133C32.5848 45.5986 37.5418 46.4369 41.3155 44.0604L46.9415 49.6864C47.7027 50.4216 48.9127 50.4111 49.661 49.6627C50.4094 48.9144 50.4199 47.7044 49.6847 46.9432L49.6856 46.9422ZM29.8841 36.6738C29.8841 32.9238 32.924 29.8838 36.6741 29.8838C40.4241 29.8838 43.4641 32.9238 43.4641 36.6738C43.4641 40.4238 40.4241 43.4638 36.6741 43.4638C32.926 43.459 29.8889 40.4218 29.8841 36.6738Z" fill="#EE0033"/>
<path d="M40.9983 46.4833C39.6551 47.0831 38.2013 47.3954 36.7303 47.3999C32.3396 47.3928 28.4006 44.6991 26.8014 40.6099L18.3003 40.6099C17.7646 40.6099 17.3303 40.1757 17.3303 39.6399C17.3303 39.1042 17.7646 38.6699 18.3003 38.6699L26.2456 38.6699C25.7337 35.9799 26.2904 33.1962 27.7976 30.9099H18.3003C17.7646 30.9099 17.3303 30.4757 17.3303 29.9399C17.3303 29.4042 17.7646 28.9699 18.3003 28.9699H29.4301C31.9286 26.6059 35.416 25.596 38.7911 26.2592C42.1662 26.9224 45.0122 29.1769 46.4303 32.3106L46.4303 19.2699H35.7603C34.1532 19.2699 32.8503 17.9671 32.8503 16.3599V5.68994L11.5103 5.68994C10.4389 5.68994 9.57031 6.55851 9.57031 7.62994L9.57031 48.3699C9.57031 49.4414 10.4389 50.3099 11.5103 50.3099L44.4903 50.3099C44.5931 50.3093 44.6956 50.3002 44.7968 50.2828L40.9983 46.4833ZM18.3003 19.2699L26.0603 19.2699C26.596 19.2699 27.0303 19.7042 27.0303 20.2399C27.0303 20.7757 26.596 21.2099 26.0603 21.2099L18.3003 21.2099C17.7646 21.2099 17.3303 20.7757 17.3303 20.2399C17.3303 19.7042 17.7646 19.2699 18.3003 19.2699Z" fill="#EE0033"/>
</svg>
