<svg width="60" height="60" viewBox="0 0 60 60" fill="none" xmlns="http://www.w3.org/2000/svg">
<rect width="60" height="60" rx="4" fill="#ED1B2F"/>
<path d="M30 44C26.7333 44 23.8426 43.0086 21.3278 41.0258C18.813 39.043 17.1796 36.5084 16.4278 33.4222C16.3241 33.0333 16.4019 32.6771 16.6611 32.3535C16.9204 32.03 17.2704 31.8418 17.7111 31.7889C18.1259 31.737 18.5019 31.8148 18.8389 32.0222C19.1759 32.2296 19.4093 32.5407 19.5389 32.9555C20.1611 35.2889 21.4444 37.1944 23.3889 38.6722C25.3333 40.15 27.537 40.8889 30 40.8889C33.0333 40.8889 35.6067 39.8327 37.7202 37.7202C39.8337 35.6078 40.8899 33.0344 40.8889 30C40.8878 26.9656 39.8316 24.3927 37.7202 22.2813C35.6088 20.1699 33.0354 19.1132 30 19.1111C28.2111 19.1111 26.5389 19.5259 24.9833 20.3556C23.4278 21.1852 22.1185 22.3259 21.0556 23.7778H23.7778C24.2185 23.7778 24.5882 23.9271 24.8869 24.2258C25.1856 24.5244 25.3344 24.8936 25.3333 25.3333C25.3323 25.773 25.183 26.1427 24.8853 26.4424C24.5877 26.7421 24.2185 26.891 23.7778 26.8889H17.5556C17.1148 26.8889 16.7456 26.7396 16.448 26.4409C16.1504 26.1422 16.001 25.773 16 25.3333V19.1111C16 18.6704 16.1493 18.3012 16.448 18.0036C16.7467 17.7059 17.1159 17.5566 17.5556 17.5556C17.9953 17.5545 18.365 17.7039 18.6647 18.0036C18.9644 18.3033 19.1132 18.6724 19.1111 19.1111V21.2111C20.4333 19.5519 22.0475 18.2685 23.9536 17.3611C25.8596 16.4537 27.8751 16 30 16C31.9444 16 33.766 16.3697 35.4647 17.1091C37.1633 17.8485 38.6411 18.8461 39.898 20.102C41.1549 21.3579 42.153 22.8356 42.8924 24.5353C43.6318 26.235 44.001 28.0566 44 30C43.999 31.9434 43.6298 33.765 42.8924 35.4647C42.1551 37.1644 41.157 38.6421 39.898 39.898C38.639 41.1538 37.1613 42.152 35.4647 42.8924C33.7681 43.6329 31.9465 44.0021 30 44ZM31.5556 29.3778L35.4444 33.2667C35.7296 33.5518 35.8722 33.9148 35.8722 34.3556C35.8722 34.7963 35.7296 35.1593 35.4444 35.4444C35.1593 35.7296 34.7963 35.8722 34.3556 35.8722C33.9148 35.8722 33.5518 35.7296 33.2667 35.4444L28.9111 31.0889C28.7556 30.9333 28.6389 30.7586 28.5611 30.5647C28.4833 30.3707 28.4444 30.1696 28.4444 29.9611V23.7778C28.4444 23.337 28.5938 22.9679 28.8924 22.6702C29.1911 22.3726 29.5603 22.2233 30 22.2222C30.4397 22.2212 30.8094 22.3705 31.1091 22.6702C31.4088 22.9699 31.5576 23.3391 31.5556 23.7778V29.3778Z" fill="white"/>
</svg>
