<svg width="48" height="49" viewBox="0 0 48 49" fill="none" xmlns="http://www.w3.org/2000/svg">
<rect y="0.293945" width="48" height="48" rx="4" fill="#FFF3EC"/>
<path d="M24 36.2939C21.2 36.2939 18.7222 35.4442 16.5667 33.7446C14.4111 32.0451 13.0111 29.8726 12.3667 27.2273C12.2778 26.8939 12.3444 26.5886 12.5667 26.3113C12.7889 26.0339 13.0889 25.8726 13.4667 25.8273C13.8222 25.7828 14.1444 25.8495 14.4333 26.0273C14.7222 26.2051 14.9222 26.4717 15.0333 26.8273C15.5667 28.8273 16.6667 30.4606 18.3333 31.7273C20 32.9939 21.8889 33.6273 24 33.6273C26.6 33.6273 28.8058 32.7219 30.6173 30.9113C32.4289 29.1006 33.3342 26.8948 33.3333 24.2939C33.3324 21.6931 32.4271 19.4877 30.6173 17.6779C28.8076 15.8682 26.6018 14.9624 24 14.9606C22.4667 14.9606 21.0333 15.3162 19.7 16.0273C18.3667 16.7384 17.2444 17.7162 16.3333 18.9606H18.6667C19.0444 18.9606 19.3613 19.0886 19.6173 19.3446C19.8733 19.6006 20.0009 19.9171 20 20.2939C19.9991 20.6708 19.8711 20.9877 19.616 21.2446C19.3609 21.5015 19.0444 21.6291 18.6667 21.6273H13.3333C12.9556 21.6273 12.6391 21.4993 12.384 21.2433C12.1289 20.9873 12.0009 20.6708 12 20.2939V14.9606C12 14.5828 12.128 14.2664 12.384 14.0113C12.64 13.7562 12.9564 13.6282 13.3333 13.6273C13.7102 13.6264 14.0271 13.7544 14.284 14.0113C14.5409 14.2682 14.6684 14.5846 14.6667 14.9606V16.7606C15.8 15.3384 17.1836 14.2384 18.8173 13.4606C20.4511 12.6828 22.1787 12.2939 24 12.2939C25.6667 12.2939 27.228 12.6108 28.684 13.2446C30.14 13.8784 31.4067 14.7335 32.484 15.8099C33.5613 16.8864 34.4169 18.1531 35.0507 19.6099C35.6844 21.0668 36.0009 22.6282 36 24.2939C35.9991 25.9597 35.6827 27.5211 35.0507 28.9779C34.4187 30.4348 33.5631 31.7015 32.484 32.7779C31.4049 33.8544 30.1382 34.7099 28.684 35.3446C27.2298 35.9793 25.6684 36.2957 24 36.2939ZM25.3333 23.7606L28.6667 27.0939C28.9111 27.3384 29.0333 27.6495 29.0333 28.0273C29.0333 28.4051 28.9111 28.7162 28.6667 28.9606C28.4222 29.2051 28.1111 29.3273 27.7333 29.3273C27.3556 29.3273 27.0444 29.2051 26.8 28.9606L23.0667 25.2273C22.9333 25.0939 22.8333 24.9442 22.7667 24.7779C22.7 24.6117 22.6667 24.4393 22.6667 24.2606V18.9606C22.6667 18.5828 22.7947 18.2664 23.0507 18.0113C23.3067 17.7562 23.6231 17.6282 24 17.6273C24.3769 17.6264 24.6938 17.7544 24.9507 18.0113C25.2076 18.2682 25.3351 18.5846 25.3333 18.9606V23.7606Z" fill="url(#paint0_linear_7429_2346)"/>
<defs>
<linearGradient id="paint0_linear_7429_2346" x1="12.0214" y1="24.3035" x2="36.0792" y2="24.3035" gradientUnits="userSpaceOnUse">
<stop stop-color="#FD5C00"/>
<stop offset="1" stop-color="#D40E19"/>
</linearGradient>
</defs>
</svg>
