<svg width="48" height="49" viewBox="0 0 48 49" fill="none" xmlns="http://www.w3.org/2000/svg">
<rect y="0.293945" width="48" height="48" rx="4" fill="#FFF3EC"/>
<path d="M31.5 12.2939H29.83C29.6231 11.7088 29.2398 11.2022 28.733 10.844C28.2261 10.4858 27.6207 10.2936 27 10.2939H21C20.3793 10.2936 19.7739 10.4858 19.267 10.844C18.7602 11.2022 18.3769 11.7088 18.17 12.2939H16.5C15.5717 12.2939 14.6815 12.6627 14.0251 13.3191C13.3687 13.9754 13 14.8657 13 15.7939V34.7939C13 35.7222 13.3687 36.6124 14.0251 37.2688C14.6815 37.9252 15.5717 38.2939 16.5 38.2939H21.5C21.5 38.0879 21.5273 37.8779 21.582 37.6639L22.372 34.6139C22.5564 33.9011 22.9266 33.2499 23.445 32.7269L23.875 32.2939H19C18.7348 32.2939 18.4804 32.1886 18.2929 32.0011C18.1054 31.8135 18 31.5592 18 31.2939C18 31.0287 18.1054 30.7744 18.2929 30.5868C18.4804 30.3993 18.7348 30.2939 19 30.2939H25.858L32.012 24.0869C32.8037 23.2863 33.8744 22.823 35 22.7939V15.7939C35 14.8657 34.6313 13.9754 33.9749 13.3191C33.3185 12.6627 32.4283 12.2939 31.5 12.2939ZM21 12.2939H27C27.2652 12.2939 27.5196 12.3993 27.7071 12.5868C27.8946 12.7744 28 13.0287 28 13.2939C28 13.5592 27.8946 13.8135 27.7071 14.0011C27.5196 14.1886 27.2652 14.2939 27 14.2939H21C20.7348 14.2939 20.4804 14.1886 20.2929 14.0011C20.1054 13.8135 20 13.5592 20 13.2939C20 13.0287 20.1054 12.7744 20.2929 12.5868C20.4804 12.3993 20.7348 12.2939 21 12.2939ZM18 21.2939C18 21.0287 18.1054 20.7744 18.2929 20.5868C18.4804 20.3993 18.7348 20.2939 19 20.2939H29C29.2652 20.2939 29.5196 20.3993 29.7071 20.5868C29.8946 20.7744 30 21.0287 30 21.2939C30 21.5592 29.8946 21.8135 29.7071 22.0011C29.5196 22.1886 29.2652 22.2939 29 22.2939H19C18.7348 22.2939 18.4804 22.1886 18.2929 22.0011C18.1054 21.8135 18 21.5592 18 21.2939ZM19 27.2939C18.7348 27.2939 18.4804 27.1886 18.2929 27.0011C18.1054 26.8135 18 26.5592 18 26.2939C18 26.0287 18.1054 25.7744 18.2929 25.5868C18.4804 25.3993 18.7348 25.2939 19 25.2939H24C24.2652 25.2939 24.5196 25.3993 24.7071 25.5868C24.8946 25.7744 25 26.0287 25 26.2939C25 26.5592 24.8946 26.8135 24.7071 27.0011C24.5196 27.1886 24.2652 27.2939 24 27.2939H19ZM37.144 29.2179L28.534 37.7609C28.1822 38.1092 27.7443 38.358 27.265 38.4819L24.245 39.2599C24.0765 39.3031 23.8997 39.3015 23.732 39.2555C23.5642 39.2094 23.4114 39.1203 23.2887 38.9972C23.1659 38.874 23.0773 38.7209 23.0318 38.553C22.9863 38.3851 22.9853 38.2083 23.029 38.0399L23.819 34.9899C23.937 34.5343 24.1737 34.1182 24.505 33.7839L33.072 25.1439C33.3444 24.8694 33.6694 24.6525 34.0274 24.5062C34.3855 24.3599 34.7694 24.2873 35.1561 24.2926C35.5429 24.2979 35.9246 24.3811 36.2785 24.5372C36.6324 24.6932 36.9512 24.919 37.216 25.2009C37.7297 25.7479 38.0096 26.4738 37.9961 27.2241C37.9827 27.9743 37.6769 28.6897 37.144 29.2179Z" fill="url(#paint0_linear_7429_2323)"/>
<defs>
<linearGradient id="paint0_linear_7429_2323" x1="13.0223" y1="24.8041" x2="38.0791" y2="24.8041" gradientUnits="userSpaceOnUse">
<stop stop-color="#FD5C00"/>
<stop offset="1" stop-color="#D40E19"/>
</linearGradient>
</defs>
</svg>
