<svg width="48" height="49" viewBox="0 0 48 49" fill="none" xmlns="http://www.w3.org/2000/svg">
<rect y="0.293945" width="48" height="48" rx="4" fill="#FFF3EC"/>
<path d="M10.6667 16.6273V18.9606H18.8387C19.1038 18.9604 19.358 18.8549 19.5453 18.6673L23 15.2139L20.96 13.1726C20.6814 12.894 20.3507 12.6731 19.9867 12.5223C19.6227 12.3715 19.2326 12.2939 18.8387 12.2939H15C13.8507 12.2939 12.7485 12.7505 11.9359 13.5631C11.1232 14.3758 10.6667 15.478 10.6667 16.6273ZM10.6667 31.9606V20.9606H18.8387C19.6338 20.9603 20.3964 20.6442 20.9587 20.0819L25.416 15.6273H33.0013C34.1504 15.6276 35.2522 16.0843 36.0646 16.897C36.877 17.7096 37.3333 18.8116 37.3333 19.9606V28.2939H37.304C37.1747 26.8779 36.6366 25.53 35.755 24.4143C34.8735 23.2986 33.6866 22.4632 32.3389 22.0099C30.9911 21.5566 29.5406 21.5049 28.164 21.8611C26.7874 22.2173 25.5441 22.966 24.5853 24.0161C23.6266 25.0662 22.9938 26.3724 22.7641 27.7756C22.5343 29.1789 22.7174 30.6187 23.2912 31.9197C23.865 33.2207 24.8046 34.3269 25.9957 35.1035C27.1868 35.8802 28.5781 36.2937 30 36.2939H15C13.8507 36.2939 12.7485 35.8374 11.9359 35.0247C11.1232 34.2121 10.6667 33.1099 10.6667 31.9606ZM30 36.2939C30.2249 36.2939 30.4471 36.2842 30.6667 36.2646V36.2939H30ZM30 34.9606C31.2457 34.9606 32.4606 34.5729 33.476 33.8513L36.96 37.3339C37.0515 37.4322 37.1619 37.511 37.2846 37.5657C37.4073 37.6203 37.5397 37.6497 37.674 37.6521C37.8082 37.6544 37.9416 37.6297 38.0661 37.5794C38.1906 37.5291 38.3037 37.4543 38.3987 37.3593C38.4937 37.2644 38.5685 37.1513 38.6188 37.0267C38.6691 36.9022 38.6938 36.7689 38.6914 36.6346C38.6891 36.5003 38.6597 36.3679 38.605 36.2452C38.5504 36.1226 38.4716 36.0122 38.3733 35.9206L34.8907 32.4366C35.6699 31.3403 36.0581 30.0139 35.9931 28.6705C35.9281 27.327 35.4135 26.0444 34.532 25.0285C33.6505 24.0125 32.4533 23.3222 31.1324 23.0684C29.8115 22.8146 28.4437 23.0119 27.2484 23.6288C26.0532 24.2456 25.0999 25.2462 24.5415 26.4699C23.9832 27.6935 23.8522 29.0693 24.1695 30.3764C24.4869 31.6834 25.2343 32.8459 26.2916 33.6773C27.3489 34.5086 28.655 34.9606 30 34.9606ZM30 32.9606C28.9391 32.9606 27.9217 32.5392 27.1716 31.789C26.4214 31.0389 26 30.0215 26 28.9606C26 27.8997 26.4214 26.8823 27.1716 26.1322C27.9217 25.382 28.9391 24.9606 30 24.9606C31.0609 24.9606 32.0783 25.382 32.8284 26.1322C33.5786 26.8823 34 27.8997 34 28.9606C34 30.0215 33.5786 31.0389 32.8284 31.789C32.0783 32.5392 31.0609 32.9606 30 32.9606Z" fill="url(#paint0_linear_7429_2341)"/>
<defs>
<linearGradient id="paint0_linear_7429_2341" x1="10.6916" y1="24.9832" x2="38.7841" y2="24.9832" gradientUnits="userSpaceOnUse">
<stop stop-color="#FD5C00"/>
<stop offset="1" stop-color="#D40E19"/>
</linearGradient>
</defs>
</svg>
