<svg width="56" height="56" viewBox="0 0 56 56" fill="none" xmlns="http://www.w3.org/2000/svg">
<path d="M31.9007 20.2102L14.4407 20.2102C13.905 20.2102 13.4707 20.6445 13.4707 21.1802L13.4707 48.3402C13.4707 48.8759 13.905 49.3102 14.4407 49.3102H31.9007C32.4364 49.3102 32.8707 48.8759 32.8707 48.3402L32.8707 21.1802C32.8707 20.6445 32.4364 20.2102 31.9007 20.2102ZM27.0507 41.5502H19.2907C18.755 41.5502 18.3207 41.1159 18.3207 40.5802C18.3207 40.0445 18.755 39.6102 19.2907 39.6102H27.0507C27.5864 39.6102 28.0207 40.0445 28.0207 40.5802C28.0207 41.1159 27.5864 41.5502 27.0507 41.5502ZM27.0507 35.7302H19.2907C18.755 35.7302 18.3207 35.2959 18.3207 34.7602C18.3207 34.2245 18.755 33.7902 19.2907 33.7902H27.0507C27.5864 33.7902 28.0207 34.2245 28.0207 34.7602C28.0207 35.2959 27.5864 35.7302 27.0507 35.7302ZM27.0507 29.9102L19.2907 29.9102C18.755 29.9102 18.3207 29.4759 18.3207 28.9402C18.3207 28.4045 18.755 27.9702 19.2907 27.9702L27.0507 27.9702C27.5864 27.9702 28.0207 28.4045 28.0207 28.9402C28.0207 29.4759 27.5864 29.9102 27.0507 29.9102Z" fill="#EE0033"/>
<path d="M49.5456 12.5141L28.2056 6.69407C27.9139 6.61455 27.6018 6.6756 27.3616 6.85915C27.1213 7.04271 26.9804 7.32778 26.9805 7.63012L26.9805 18.3001H31.8305C33.4376 18.3001 34.7405 19.603 34.7405 21.2101L34.7405 49.3401L49.2905 49.3401C49.8262 49.3401 50.2605 48.9058 50.2605 48.3701L50.2605 13.4501C50.2606 13.0126 49.9677 12.6291 49.5456 12.5141ZM40.5605 40.6101C40.5605 41.1458 40.1262 41.5801 39.5905 41.5801C39.0548 41.5801 38.6205 41.1458 38.6205 40.6101L38.6205 19.2701C38.6205 18.7344 39.0548 18.3001 39.5905 18.3001C40.1262 18.3001 40.5605 18.7344 40.5605 19.2701L40.5605 40.6101ZM46.3805 40.6101C46.3805 41.1458 45.9462 41.5801 45.4105 41.5801C44.8748 41.5801 44.4405 41.1458 44.4405 40.6101L44.4405 21.2101C44.4405 20.6744 44.8748 20.2401 45.4105 20.2401C45.9462 20.2401 46.3805 20.6744 46.3805 21.2101L46.3805 40.6101Z" fill="#EE0033"/>
<path d="M6.75027 27.9502C6.21456 27.9502 5.78027 28.3845 5.78027 28.9202L5.78027 48.3202C5.78027 48.8559 6.21456 49.2902 6.75027 49.2902H11.6003L11.6003 27.9502H6.75027Z" fill="#EE0033"/>
</svg>
