<svg width="48" height="48" viewBox="0 0 48 48" fill="none" xmlns="http://www.w3.org/2000/svg">
<rect width="48" height="48" rx="4" fill="#FFF2F4"/>
<path d="M31.5 12H29.83C29.6231 11.4148 29.2398 10.9083 28.733 10.5501C28.2261 10.1919 27.6207 9.99968 27 10H21C20.3793 9.99968 19.7739 10.1919 19.267 10.5501C18.7602 10.9083 18.3769 11.4148 18.17 12H16.5C15.5717 12 14.6815 12.3687 14.0251 13.0251C13.3687 13.6815 13 14.5717 13 15.5V34.5C13 35.4283 13.3687 36.3185 14.0251 36.9749C14.6815 37.6313 15.5717 38 16.5 38H21.5C21.5 37.794 21.5273 37.584 21.582 37.37L22.372 34.32C22.5564 33.6071 22.9266 32.956 23.445 32.433L23.875 32H19C18.7348 32 18.4804 31.8946 18.2929 31.7071C18.1054 31.5196 18 31.2652 18 31C18 30.7348 18.1054 30.4804 18.2929 30.2929C18.4804 30.1054 18.7348 30 19 30H25.858L32.012 23.793C32.8037 22.9923 33.8744 22.529 35 22.5V15.5C35 14.5717 34.6313 13.6815 33.9749 13.0251C33.3185 12.3687 32.4283 12 31.5 12ZM21 12H27C27.2652 12 27.5196 12.1054 27.7071 12.2929C27.8946 12.4804 28 12.7348 28 13C28 13.2652 27.8946 13.5196 27.7071 13.7071C27.5196 13.8946 27.2652 14 27 14H21C20.7348 14 20.4804 13.8946 20.2929 13.7071C20.1054 13.5196 20 13.2652 20 13C20 12.7348 20.1054 12.4804 20.2929 12.2929C20.4804 12.1054 20.7348 12 21 12ZM18 21C18 20.7348 18.1054 20.4804 18.2929 20.2929C18.4804 20.1054 18.7348 20 19 20H29C29.2652 20 29.5196 20.1054 29.7071 20.2929C29.8946 20.4804 30 20.7348 30 21C30 21.2652 29.8946 21.5196 29.7071 21.7071C29.5196 21.8946 29.2652 22 29 22H19C18.7348 22 18.4804 21.8946 18.2929 21.7071C18.1054 21.5196 18 21.2652 18 21ZM19 27C18.7348 27 18.4804 26.8946 18.2929 26.7071C18.1054 26.5196 18 26.2652 18 26C18 25.7348 18.1054 25.4804 18.2929 25.2929C18.4804 25.1054 18.7348 25 19 25H24C24.2652 25 24.5196 25.1054 24.7071 25.2929C24.8946 25.4804 25 25.7348 25 26C25 26.2652 24.8946 26.5196 24.7071 26.7071C24.5196 26.8946 24.2652 27 24 27H19ZM37.144 28.924L28.534 37.467C28.1822 37.8153 27.7443 38.0641 27.265 38.188L24.245 38.966C24.0765 39.0091 23.8997 39.0076 23.732 38.9615C23.5642 38.9154 23.4114 38.8264 23.2887 38.7032C23.1659 38.58 23.0773 38.4269 23.0318 38.2591C22.9863 38.0912 22.9853 37.9144 23.029 37.746L23.819 34.696C23.937 34.2404 24.1737 33.8242 24.505 33.49L33.072 24.85C33.3444 24.5754 33.6694 24.3585 34.0274 24.2123C34.3855 24.066 34.7694 23.9934 35.1561 23.9987C35.5429 24.004 35.9246 24.0872 36.2785 24.2432C36.6324 24.3993 36.9512 24.625 37.216 24.907C37.7297 25.454 38.0096 26.1799 37.9961 26.9301C37.9827 27.6804 37.6769 28.3958 37.144 28.924Z" fill="#E80228"/>
</svg>
