<svg width="60" height="60" viewBox="0 0 60 60" fill="none" xmlns="http://www.w3.org/2000/svg">
<rect width="60" height="60" rx="4" fill="#E80228"/>
<path d="M38.7228 17.9312H36.8522C36.6204 17.3662 36.1911 16.877 35.6233 16.5311C35.0556 16.1853 34.3774 15.9997 33.6821 16H26.9612C26.266 15.9997 25.5878 16.1853 25.02 16.5311C24.4523 16.877 24.0229 17.3662 23.7912 17.9312H21.9205C20.8807 17.9312 19.8835 18.2873 19.1483 18.9211C18.4131 19.5549 18 20.4145 18 21.3108V39.6574C18 40.5537 18.4131 41.4134 19.1483 42.0472C19.8835 42.681 20.8807 43.037 21.9205 43.037H27.5213C27.5213 42.8381 27.5519 42.6353 27.6132 42.4287L28.4981 39.4836C28.7046 38.7952 29.1193 38.1665 29.7 37.6615L30.1817 37.2434H24.7209C24.4238 37.2434 24.1389 37.1417 23.9288 36.9606C23.7188 36.7795 23.6008 36.5339 23.6008 36.2778C23.6008 36.0217 23.7188 35.7761 23.9288 35.595C24.1389 35.4139 24.4238 35.3122 24.7209 35.3122H32.4029L39.2963 29.3186C40.1831 28.5455 41.3825 28.0981 42.6434 28.0701V21.3108C42.6434 20.4145 42.2303 19.5549 41.4951 18.9211C40.7598 18.2873 39.7626 17.9312 38.7228 17.9312ZM26.9612 17.9312H33.6821C33.9792 17.9312 34.2641 18.033 34.4742 18.214C34.6843 18.3951 34.8023 18.6407 34.8023 18.8968C34.8023 19.1529 34.6843 19.3985 34.4742 19.5796C34.2641 19.7607 33.9792 19.8624 33.6821 19.8624H26.9612C26.6641 19.8624 26.3792 19.7607 26.1692 19.5796C25.9591 19.3985 25.8411 19.1529 25.8411 18.8968C25.8411 18.6407 25.9591 18.3951 26.1692 18.214C26.3792 18.033 26.6641 17.9312 26.9612 17.9312ZM23.6008 26.6217C23.6008 26.3656 23.7188 26.12 23.9288 25.9389C24.1389 25.7578 24.4238 25.6561 24.7209 25.6561H35.9224C36.2195 25.6561 36.5044 25.7578 36.7145 25.9389C36.9246 26.12 37.0426 26.3656 37.0426 26.6217C37.0426 26.8778 36.9246 27.1234 36.7145 27.3045C36.5044 27.4856 36.2195 27.5873 35.9224 27.5873H24.7209C24.4238 27.5873 24.1389 27.4856 23.9288 27.3045C23.7188 27.1234 23.6008 26.8778 23.6008 26.6217ZM24.7209 32.4153C24.4238 32.4153 24.1389 32.3136 23.9288 32.1325C23.7188 31.9514 23.6008 31.7058 23.6008 31.4497C23.6008 31.1936 23.7188 30.948 23.9288 30.7669C24.1389 30.5859 24.4238 30.4841 24.7209 30.4841H30.3217C30.6188 30.4841 30.9037 30.5859 31.1137 30.7669C31.3238 30.948 31.4418 31.1936 31.4418 31.4497C31.4418 31.7058 31.3238 31.9514 31.1137 32.1325C30.9037 32.3136 30.6188 32.4153 30.3217 32.4153H24.7209ZM45.045 34.2732L35.4005 42.5224C35.0064 42.8587 34.5159 43.0989 33.979 43.2186L30.5961 43.9698C30.4074 44.0115 30.2093 44.01 30.0214 43.9655C29.8336 43.921 29.6624 43.835 29.5249 43.7161C29.3873 43.5971 29.2882 43.4493 29.2371 43.2872C29.1861 43.1251 29.1851 42.9543 29.234 42.7918L30.1189 39.8467C30.2511 39.4067 30.5162 39.0049 30.8874 38.6821L40.4837 30.3393C40.7889 30.0742 41.1528 29.8647 41.5539 29.7235C41.955 29.5823 42.385 29.5121 42.8182 29.5172C43.2514 29.5224 43.679 29.6027 44.0755 29.7534C44.4719 29.9041 44.829 30.1221 45.1256 30.3943C45.701 30.9225 46.0145 31.6234 45.9995 32.3479C45.9844 33.0723 45.6419 33.7631 45.045 34.2732Z" fill="white"/>
</svg>
