<svg width="22" height="22" viewBox="0 0 22 22" fill="none" xmlns="http://www.w3.org/2000/svg">
<g clip-path="url(#clip0_2144_5095)">
<path d="M6.40078 3.63993L6.40078 1.79993L15.6008 1.79993V3.63993L20.2008 3.63993V5.47993L18.3608 5.47993L18.3608 19.2799C18.3608 19.788 17.9489 20.1999 17.4408 20.1999L4.56078 20.1999C4.05268 20.1999 3.64078 19.788 3.64078 19.2799L3.64078 5.47993H1.80078L1.80078 3.63993L6.40078 3.63993ZM5.48078 5.47993L5.48078 18.3599L16.5208 18.3599L16.5208 5.47993L5.48078 5.47993ZM8.24078 8.23993H10.0808L10.0808 15.5999H8.24078L8.24078 8.23993ZM11.9208 8.23993H13.7608L13.7608 15.5999L11.9208 15.5999L11.9208 8.23993Z" fill="#737373"/>
</g>
<defs>
<clipPath id="clip0_2144_5095">
<rect width="22" height="22" fill="white"/>
</clipPath>
</defs>
</svg>
