<svg width="22" height="22" viewBox="0 0 22 22" fill="none" xmlns="http://www.w3.org/2000/svg">
<g clip-path="url(#clip0_2144_4872)">
<path d="M6.40078 3.64005L6.40078 1.80005L15.6008 1.80005V3.64005L20.2008 3.64005V5.48005L18.3608 5.48005L18.3608 19.28C18.3608 19.7882 17.9489 20.2 17.4408 20.2L4.56078 20.2C4.05268 20.2 3.64078 19.7882 3.64078 19.28L3.64078 5.48005H1.80078L1.80078 3.64005L6.40078 3.64005ZM5.48078 5.48005L5.48078 18.36L16.5208 18.36L16.5208 5.48005L5.48078 5.48005ZM8.24078 8.24005H10.0808L10.0808 15.6H8.24078L8.24078 8.24005ZM11.9208 8.24005H13.7608L13.7608 15.6L11.9208 15.6L11.9208 8.24005Z" fill="#737373"/>
</g>
<defs>
<clipPath id="clip0_2144_4872">
<rect width="22" height="22" fill="white"/>
</clipPath>
</defs>
</svg>
