<svg width="20" height="21" viewBox="0 0 20 21" fill="none" xmlns="http://www.w3.org/2000/svg">
<path d="M2.5 8.83317C2.5 5.69067 2.5 4.119 3.47667 3.14317C4.45333 2.16734 6.02417 2.1665 9.16667 2.1665H10.8333C13.9758 2.1665 15.5475 2.1665 16.5233 3.14317C17.4992 4.11984 17.5 5.69067 17.5 8.83317V12.1665C17.5 15.309 17.5 16.8807 16.5233 17.8565C15.5467 18.8323 13.9758 18.8332 10.8333 18.8332H9.16667C6.02417 18.8332 4.4525 18.8332 3.47667 17.8565C2.50083 16.8798 2.5 15.309 2.5 12.1665V8.83317Z" stroke="#FD5C00" stroke-width="1.5"/>
<path d="M6.66675 8.83301H13.3334M6.66675 12.1663H10.8334" stroke="#FD5C00" stroke-width="1.5" stroke-linecap="round"/>
</svg>
