<svg width="22" height="22" viewBox="0 0 22 22" fill="none" xmlns="http://www.w3.org/2000/svg">
<g clip-path="url(#clip0_2144_4943)">
<path d="M11.0004 2.71997C15.961 2.71997 20.0881 6.28957 20.9538 11C20.089 15.7104 15.961 19.28 11.0004 19.28C6.03971 19.28 1.91259 15.7104 1.04687 11C1.91167 6.28957 6.03971 2.71997 11.0004 2.71997ZM11.0004 17.44C14.8645 17.4391 18.2148 14.7671 19.0752 11C18.2117 7.23597 14.8621 4.56782 11.0004 4.56782C7.13858 4.56782 3.78901 7.23597 2.92551 11C3.78588 14.7671 7.13624 17.4391 11.0004 17.44ZM11.0004 15.14C8.7139 15.14 6.86035 13.2864 6.86035 11C6.86035 8.71351 8.7139 6.85997 11.0004 6.85997C13.2868 6.85997 15.1404 8.71351 15.1404 11C15.1404 13.2864 13.2868 15.14 11.0004 15.14ZM11.0004 13.3C12.2706 13.3 13.3004 12.2702 13.3004 11C13.3004 9.72972 12.2706 8.69997 11.0004 8.69997C9.7301 8.69997 8.70036 9.72972 8.70036 11C8.70036 12.2702 9.7301 13.3 11.0004 13.3Z" fill="#737373"/>
</g>
<defs>
<clipPath id="clip0_2144_4943">
<rect width="22" height="22" fill="white"/>
</clipPath>
</defs>
</svg>
