<svg width="20" height="20" viewBox="0 0 20 20" fill="none" xmlns="http://www.w3.org/2000/svg">
<path d="M4.87012 2.80776L4.87027 2.80762C4.97861 2.69924 5.10724 2.61326 5.24882 2.5546L5.07255 2.12918L5.24882 2.5546C5.3904 2.49594 5.54214 2.46574 5.69539 2.46574C5.84864 2.46574 6.00039 2.49594 6.14196 2.5546L6.31823 2.12918L6.14197 2.5546C6.28353 2.61325 6.41215 2.69922 6.52048 2.80759C6.52049 2.8076 6.5205 2.80761 6.52052 2.80762L7.53714 3.82487L3.82487 7.53714L2.80692 6.51981C2.5882 6.30103 2.46533 6.00433 2.46533 5.69497C2.46533 5.38561 2.5882 5.08892 2.80692 4.87014L4.87012 2.80776ZM17.0724 17.0717L12.6064 16.3185L5.71042 9.42247L9.4225 5.71039L16.3185 12.6056L17.0724 17.0717Z" fill="#FD5C00" stroke="#FD5C00"/>
</svg>
