<svg width="32" height="32" viewBox="0 0 32 32" fill="none" xmlns="http://www.w3.org/2000/svg">
<path fill-rule="evenodd" clip-rule="evenodd" d="M8.703 6H22.797C23.464 6 24.034 6 24.49 6.057C24.973 6.118 25.44 6.255 25.824 6.615C26.214 6.982 26.369 7.439 26.437 7.914C26.5 8.351 26.5 8.894 26.5 9.514V10.29C26.5 10.779 26.5 11.2 26.464 11.553C26.424 11.933 26.339 12.288 26.133 12.629C25.928 12.968 25.653 13.214 25.335 13.434C25.036 13.642 24.655 13.857 24.205 14.11L21.263 15.766C20.593 16.143 20.36 16.279 20.204 16.414C19.847 16.724 19.642 17.069 19.546 17.5C19.505 17.685 19.5 17.917 19.5 18.623V21.355C19.5 22.256 19.5 23.021 19.407 23.61C19.309 24.235 19.08 24.835 18.48 25.21C17.893 25.577 17.248 25.543 16.62 25.394C16.015 25.251 15.27 24.959 14.376 24.61L14.29 24.576C13.87 24.412 13.504 24.269 13.214 24.119C12.902 23.958 12.612 23.758 12.391 23.446C12.166 23.13 12.077 22.792 12.036 22.446C12 22.131 12 21.753 12 21.331V18.623C12 17.917 11.996 17.685 11.954 17.5C11.8634 17.0741 11.6315 16.6914 11.296 16.414C11.14 16.279 10.906 16.143 10.237 15.766L7.295 14.11C6.845 13.857 6.464 13.642 6.165 13.434C5.847 13.214 5.572 12.968 5.367 12.629C5.161 12.288 5.076 11.932 5.037 11.553C5 11.201 5 10.779 5 10.29V9.514C5 8.894 5 8.351 5.063 7.914C5.131 7.439 5.286 6.982 5.676 6.615C6.06 6.255 6.526 6.118 7.01 6.057C7.466 6 8.036 6 8.703 6ZM7.198 7.546C6.864 7.588 6.758 7.656 6.703 7.709C6.653 7.755 6.589 7.836 6.547 8.127C6.502 8.445 6.5 8.879 6.5 9.565V10.255C6.5 10.789 6.5 11.133 6.528 11.399C6.554 11.646 6.598 11.765 6.652 11.854C6.707 11.945 6.799 12.048 7.02 12.202C7.254 12.364 7.573 12.545 8.06 12.819L10.973 14.459L11.053 14.504C11.613 14.819 11.993 15.033 12.279 15.281C12.8574 15.769 13.2582 16.4345 13.419 17.174C13.5 17.541 13.5 17.954 13.5 18.534V21.293C13.5 21.765 13.501 22.055 13.527 22.273C13.549 22.471 13.586 22.538 13.613 22.577C13.643 22.619 13.703 22.684 13.902 22.787C14.114 22.896 14.407 23.011 14.869 23.192C15.83 23.568 16.477 23.819 16.966 23.935C17.445 24.049 17.603 23.99 17.684 23.939C17.752 23.896 17.857 23.809 17.926 23.376C17.998 22.919 18 22.273 18 21.292V18.534C18 17.954 18 17.541 18.082 17.174C18.2425 16.4347 18.643 15.7691 19.221 15.281C19.507 15.033 19.888 14.818 20.446 14.504L20.527 14.459L23.44 12.819C23.927 12.545 24.246 12.364 24.48 12.202C24.701 12.048 24.793 11.945 24.848 11.854C24.902 11.765 24.946 11.646 24.971 11.399C24.999 11.133 25 10.789 25 10.254V9.564C25 8.879 24.998 8.444 24.953 8.127C24.911 7.836 24.846 7.755 24.798 7.709C24.742 7.657 24.636 7.588 24.302 7.546C23.952 7.501 23.477 7.5 22.75 7.5H8.75C8.023 7.5 7.549 7.501 7.198 7.546Z" fill="#333333"/>
</svg>
