<svg width="24" height="25" viewBox="0 0 24 25" fill="none" xmlns="http://www.w3.org/2000/svg">
<path fill-rule="evenodd" clip-rule="evenodd" d="M9 1.75C7.74022 1.75 6.53204 2.25044 5.64124 3.14124C4.75045 4.03204 4.25 5.24022 4.25 6.5C4.25 7.75978 4.75045 8.96796 5.64124 9.85876C6.53204 10.7496 7.74022 11.25 9 11.25C10.2598 11.25 11.468 10.7496 12.3588 9.85876C13.2496 8.96796 13.75 7.75978 13.75 6.5C13.75 5.24022 13.2496 4.03204 12.3588 3.14124C11.468 2.25044 10.2598 1.75 9 1.75ZM5.75 6.5C5.75 5.63805 6.09241 4.8114 6.7019 4.2019C7.3114 3.59241 8.13805 3.25 9 3.25C9.86195 3.25 10.6886 3.59241 11.2981 4.2019C11.9076 4.8114 12.25 5.63805 12.25 6.5C12.25 7.36195 11.9076 8.1886 11.2981 8.7981C10.6886 9.40759 9.86195 9.75 9 9.75C8.13805 9.75 7.3114 9.40759 6.7019 8.7981C6.09241 8.1886 5.75 7.36195 5.75 6.5Z" fill="#FD5C00"/>
<path d="M15 2.75C14.8011 2.75 14.6103 2.82902 14.4697 2.96967C14.329 3.11032 14.25 3.30109 14.25 3.5C14.25 3.69891 14.329 3.88968 14.4697 4.03033C14.6103 4.17098 14.8011 4.25 15 4.25C15.5967 4.25 16.169 4.48705 16.591 4.90901C17.0129 5.33097 17.25 5.90326 17.25 6.5C17.25 7.09674 17.0129 7.66903 16.591 8.09099C16.169 8.51295 15.5967 8.75 15 8.75C14.8011 8.75 14.6103 8.82902 14.4697 8.96967C14.329 9.11032 14.25 9.30109 14.25 9.5C14.25 9.69891 14.329 9.88968 14.4697 10.0303C14.6103 10.171 14.8011 10.25 15 10.25C15.9946 10.25 16.9484 9.85491 17.6517 9.15165C18.3549 8.44839 18.75 7.49456 18.75 6.5C18.75 5.50544 18.3549 4.55161 17.6517 3.84835C16.9484 3.14509 15.9946 2.75 15 2.75Z" fill="#FD5C00"/>
<path fill-rule="evenodd" clip-rule="evenodd" d="M3.678 14.02C5.078 13.22 6.961 12.75 9 12.75C11.039 12.75 12.922 13.22 14.322 14.02C15.7 14.808 16.75 16.01 16.75 17.5C16.75 18.99 15.7 20.192 14.322 20.98C12.922 21.78 11.039 22.25 9 22.25C6.961 22.25 5.078 21.78 3.678 20.98C2.3 20.192 1.25 18.99 1.25 17.5C1.25 16.01 2.3 14.808 3.678 14.02ZM4.422 15.323C3.267 15.983 2.75 16.78 2.75 17.5C2.75 18.22 3.267 19.017 4.422 19.677C5.556 20.325 7.173 20.75 9 20.75C10.827 20.75 12.444 20.325 13.578 19.677C14.733 19.017 15.25 18.219 15.25 17.5C15.25 16.781 14.733 15.983 13.578 15.323C12.444 14.675 10.827 14.25 9 14.25C7.173 14.25 5.556 14.675 4.422 15.323Z" fill="#FD5C00"/>
<path d="M18.16 13.7668C17.9656 13.7243 17.7623 13.7609 17.5948 13.8683C17.4273 13.9758 17.3094 14.1454 17.267 14.3398C17.2246 14.5342 17.2611 14.7375 17.3685 14.9049C17.476 15.0724 17.6456 15.1903 17.84 15.2328C18.632 15.4058 19.265 15.7048 19.683 16.0468C20.101 16.3888 20.25 16.7238 20.25 16.9998C20.25 17.2498 20.13 17.5448 19.797 17.8538C19.462 18.1648 18.947 18.4518 18.284 18.6518C18.1896 18.6801 18.1018 18.7268 18.0255 18.7891C17.9492 18.8514 17.8859 18.9282 17.8392 19.015C17.7925 19.1017 17.7634 19.1968 17.7535 19.2949C17.7436 19.3929 17.7531 19.4919 17.7815 19.5863C17.8099 19.6806 17.8565 19.7685 17.9188 19.8448C17.9812 19.9211 18.0579 19.9844 18.1447 20.0311C18.2314 20.0777 18.3266 20.1068 18.4246 20.1167C18.5226 20.1266 18.6216 20.1171 18.716 20.0888C19.539 19.8408 20.274 19.4578 20.818 18.9528C21.364 18.4458 21.75 17.7788 21.75 16.9998C21.75 16.1348 21.276 15.4118 20.633 14.8858C19.989 14.3588 19.122 13.9778 18.16 13.7668Z" fill="#FD5C00"/>
</svg>
