<svg width="20" height="20" viewBox="0 0 20 20" fill="none" xmlns="http://www.w3.org/2000/svg">
<path d="M16.6107 10.8675C16.4534 12.0675 15.9723 13.202 15.2192 14.1493C14.4661 15.0967 13.4693 15.8211 12.3357 16.245C11.2021 16.6689 9.97454 16.7762 8.7846 16.5555C7.59467 16.3347 6.48727 15.7942 5.58118 14.9919C4.67509 14.1896 4.00448 13.1558 3.64128 12.0014C3.27808 10.8469 3.23599 9.61538 3.51952 8.43882C3.80305 7.26227 4.4015 6.18508 5.2507 5.3228C6.0999 4.46051 7.16781 3.84565 8.33989 3.54417C11.5891 2.71083 14.9524 4.38333 16.1941 7.5" stroke="#FE0000" stroke-width="2" stroke-linecap="round" stroke-linejoin="round"/>
<path d="M16.6667 3.33333V7.5H12.5" stroke="#FE0000" stroke-width="2" stroke-linecap="round" stroke-linejoin="round"/>
</svg>
