<svg width="24" height="24" viewBox="0 0 24 24" fill="none" xmlns="http://www.w3.org/2000/svg">
<path d="M19.7404 1.68018L4.26039 1.68018C3.74439 1.68018 3.40039 2.02418 3.40039 2.54018L3.40039 21.4602C3.40039 21.9762 3.74439 22.3202 4.26039 22.3202L19.7404 22.3202C20.2564 22.3202 20.6004 21.9762 20.6004 21.4602L20.6004 2.54018C20.6004 2.02418 20.2564 1.68018 19.7404 1.68018ZM11.1404 9.42018L15.4404 9.42018V11.1402L11.1404 11.1402L11.1404 9.42018ZM9.42039 18.0202H6.84039V16.3002H9.42039V18.0202ZM9.42039 14.5802L6.84039 14.5802L6.84039 12.8602L9.42039 12.8602V14.5802ZM9.42039 11.1402L6.84039 11.1402V9.42018L9.42039 9.42018L9.42039 11.1402ZM9.42039 7.70018L6.84039 7.70018L6.84039 5.98018L9.42039 5.98018L9.42039 7.70018ZM14.5804 18.0202H11.1404V16.3002L14.5804 16.3002V18.0202ZM17.1604 14.5802L11.1404 14.5802V12.8602L17.1604 12.8602V14.5802ZM17.1604 7.70018L11.1404 7.70018L11.1404 5.98018L17.1604 5.98018V7.70018Z" fill="#EE0033"/>
</svg>
