<svg width="24" height="24" viewBox="0 0 24 24" fill="none" xmlns="http://www.w3.org/2000/svg">
<path d="M21.7065 4.29636L13.1065 1.71636C12.8461 1.63835 12.5642 1.68803 12.3462 1.85032C12.1281 2.01262 11.9997 2.26844 11.9997 2.54024L11.9997 6.84024H13.7197L13.7197 3.69608L20.5997 5.76008L20.5997 20.6002H15.4397L15.4397 9.42024C15.4397 8.94528 15.0547 8.56024 14.5797 8.56024L5.97969 8.56024C5.50472 8.56024 5.11969 8.94528 5.11969 9.42024L5.11969 20.6002H3.39969L3.39969 12.0002H2.53969C2.06472 12.0002 1.67969 12.3853 1.67969 12.8602L1.67969 21.4602C1.67969 21.9352 2.06472 22.3202 2.53969 22.3202L21.4597 22.3202C21.9347 22.3202 22.3197 21.9352 22.3197 21.4602L22.3197 5.12024C22.3197 4.74032 22.0704 4.4054 21.7065 4.29636ZM11.5697 19.7402H8.98969C8.7522 19.7402 8.55969 19.5477 8.55969 19.3102V18.4502C8.55969 18.2128 8.7522 18.0202 8.98969 18.0202H11.5697C11.8072 18.0202 11.9997 18.2128 11.9997 18.4502V19.3102C11.9997 19.5477 11.8072 19.7402 11.5697 19.7402ZM11.5697 16.3002H8.98969C8.7522 16.3002 8.55969 16.1077 8.55969 15.8702V15.0102C8.55969 14.7728 8.7522 14.5802 8.98969 14.5802H11.5697C11.8072 14.5802 11.9997 14.7728 11.9997 15.0102V15.8702C11.9997 16.1077 11.8072 16.3002 11.5697 16.3002ZM11.5697 12.8602H8.98969C8.7522 12.8602 8.55969 12.6677 8.55969 12.4302V11.5702C8.55969 11.3328 8.7522 11.1402 8.98969 11.1402H11.5697C11.8072 11.1402 11.9997 11.3328 11.9997 11.5702V12.4302C11.9997 12.6677 11.8072 12.8602 11.5697 12.8602Z" fill="#EE0033"/>
<path d="M18.4306 8.55029H17.5706C17.3331 8.55029 17.1406 8.74281 17.1406 8.98029L17.1406 18.4403C17.1406 18.6778 17.3331 18.8703 17.5706 18.8703H18.4306C18.6681 18.8703 18.8606 18.6778 18.8606 18.4403L18.8606 8.98029C18.8606 8.74281 18.6681 8.55029 18.4306 8.55029Z" fill="#EE0033"/>
</svg>
