<svg width="16" height="16" viewBox="0 0 16 16" fill="none" xmlns="http://www.w3.org/2000/svg">
<path d="M7.99906 9.71004C8.94347 9.71004 9.70906 8.94445 9.70906 8.00004C9.70906 7.05563 8.94347 6.29004 7.99906 6.29004C7.05466 6.29004 6.28906 7.05563 6.28906 8.00004C6.28906 8.94445 7.05466 9.71004 7.99906 9.71004Z" stroke="#737373" stroke-width="1.368" stroke-miterlimit="10" stroke-linecap="square"/>
<path d="M12.5598 7.99998C12.5591 7.67161 12.5232 7.34427 12.4527 7.02357L13.9996 5.85222L12.8596 3.87774L11.0681 4.63356C10.583 4.18879 10.0072 3.8545 9.38036 3.65373L9.13982 1.72998L6.85982 1.72998L6.61928 3.65373C5.99248 3.8545 5.41666 4.18879 4.93151 4.63356L3.14 3.87774L2 5.85222L3.54698 7.02357C3.40413 7.66667 3.40413 8.33329 3.54698 8.97639L2 10.1477L3.14 12.1222L4.93151 11.3664C5.41666 11.8112 5.99248 12.1455 6.61928 12.3462L6.85982 14.27H9.13982L9.38036 12.3462C10.0072 12.1455 10.583 11.8112 11.0681 11.3664L12.8596 12.1222L13.9996 10.1477L12.4527 8.97639C12.5232 8.65569 12.5591 8.32835 12.5598 7.99998Z" stroke="#737373" stroke-width="1.368" stroke-miterlimit="10" stroke-linecap="round"/>
</svg>
