<svg width="16" height="17" viewBox="0 0 16 17" fill="none" xmlns="http://www.w3.org/2000/svg">
<path d="M10.6667 8.5C12.5067 8.5 14 7.00667 14 5.16667C14 3.32667 12.5067 1.83334 10.6667 1.83334C8.82667 1.83334 7.33334 3.32667 7.33334 5.16667C7.33334 7.00667 8.82667 8.5 10.6667 8.5ZM14.3 12.2333C14.04 11.9667 13.7133 11.8333 13.3333 11.8333H8.66667L7.28001 11.3467L7.50001 10.72L8.66667 11.1667H10.5333C10.7667 11.1667 10.9533 11.0733 11.1067 10.92C11.26 10.7667 11.3333 10.58 11.3333 10.3733C11.3333 10.0133 11.16 9.76667 10.8133 9.62667L5.96667 7.83334H4.66667V13.8333L9.33334 15.1667L14.6867 13.1667C14.6933 12.8133 14.56 12.5 14.3 12.2333ZM3.33334 7.83334H0.656006V15.1667H3.33334V7.83334Z" fill="#333333"/>
</svg>
