<svg width="24" height="25" viewBox="0 0 24 25" fill="none" xmlns="http://www.w3.org/2000/svg">
<path d="M18.0081 19.7825V19.1418C18.0081 18.2156 17.5119 17.3607 16.7078 16.9015L13.9395 15.3174" stroke="#EE0033" stroke-width="2.064" stroke-miterlimit="10" stroke-linecap="round"/>
<path d="M10.0657 15.3157L7.30081 16.9015C6.49671 17.3608 6.00049 18.2156 6.00049 19.1418V19.7825" stroke="#EE0033" stroke-width="2.064" stroke-miterlimit="10" stroke-linecap="round"/>
<path d="M12.0001 15.9401C10.1003 15.9401 8.56006 14.3998 8.56006 12.5001L8.56006 10.7801C8.56006 8.88035 10.1003 7.34009 12.0001 7.34009C13.8998 7.34009 15.4401 8.88035 15.4401 10.7801V12.5001C15.4401 14.3998 13.8998 15.9401 12.0001 15.9401Z" stroke="#EE0033" stroke-width="2.064" stroke-miterlimit="10" stroke-linecap="round"/>
<path d="M12 21.96C17.2247 21.96 21.46 17.7247 21.46 12.5C21.46 7.27543 17.2247 3.04004 12 3.04004C6.77543 3.04004 2.54004 7.27543 2.54004 12.5C2.54004 17.7247 6.77543 21.96 12 21.96Z" stroke="#EE0033" stroke-width="2.064" stroke-miterlimit="10" stroke-linecap="square"/>
</svg>