<svg width="20" height="21" viewBox="0 0 20 21" fill="none" xmlns="http://www.w3.org/2000/svg">
<path fill-rule="evenodd" clip-rule="evenodd" d="M9.12 1.5415H10.88C12.4117 1.5415 13.625 1.5415 14.5742 1.669C15.5508 1.80067 16.3417 2.07734 16.9658 2.70067C17.0762 2.81915 17.1363 2.97586 17.1335 3.13777C17.1306 3.29969 17.065 3.45418 16.9505 3.56869C16.836 3.6832 16.6815 3.74879 16.5196 3.75165C16.3577 3.75451 16.201 3.6944 16.0825 3.584C15.7292 3.23234 15.2458 3.02067 14.4075 2.90817C13.5517 2.79317 12.4225 2.7915 10.8333 2.7915H9.16667C7.5775 2.7915 6.44917 2.79317 5.59167 2.90817C4.75417 3.02067 4.27083 3.23234 3.91833 3.58484C3.56583 3.93734 3.35417 4.42067 3.24167 5.25817C3.12667 6.11567 3.125 7.244 3.125 8.83317V12.1665C3.125 13.7557 3.12667 14.8848 3.24167 15.7415C3.35417 16.579 3.56583 17.0623 3.91833 17.4148C4.27083 17.7673 4.75417 17.979 5.5925 18.0915C6.44917 18.2065 7.5775 18.2082 9.16667 18.2082H10.8333C12.4225 18.2082 13.5517 18.2065 14.4083 18.0915C15.2458 17.979 15.7292 17.7673 16.0817 17.4148C16.6617 16.8348 16.8375 15.934 16.8675 13.824C16.8699 13.6582 16.9381 13.5002 17.057 13.3847C17.1159 13.3276 17.1855 13.2825 17.2618 13.2522C17.3381 13.2219 17.4196 13.207 17.5017 13.2082C17.5837 13.2094 17.6648 13.2267 17.7401 13.2593C17.8155 13.2918 17.8837 13.3388 17.9409 13.3977C17.9981 13.4566 18.0431 13.5262 18.0734 13.6025C18.1037 13.6788 18.1187 13.7603 18.1175 13.8423C18.0883 15.8648 17.9575 17.3073 16.9658 18.299C16.3417 18.9223 15.5508 19.199 14.5742 19.3307C13.6242 19.4582 12.4117 19.4582 10.88 19.4582H9.12C7.58833 19.4582 6.375 19.4582 5.42583 19.3307C4.44917 19.199 3.65833 18.9223 3.03417 18.299C2.41083 17.6748 2.13417 16.884 2.0025 15.9073C1.875 14.9573 1.875 13.7448 1.875 12.2132V8.7865C1.875 7.25484 1.875 6.0415 2.0025 5.09234C2.13417 4.11567 2.41083 3.32484 3.03417 2.70067C3.65833 2.07734 4.44917 1.80067 5.42583 1.669C6.37583 1.5415 7.58833 1.5415 9.12 1.5415ZM15.095 6.3715C15.3033 6.15343 15.5531 5.9792 15.8297 5.85903C16.1063 5.73886 16.4042 5.67518 16.7057 5.67173C17.0073 5.66828 17.3065 5.72513 17.5858 5.83895C17.865 5.95276 18.1188 6.12125 18.332 6.33449C18.5453 6.54774 18.7137 6.80146 18.8276 7.08074C18.9414 7.36002 18.9982 7.65923 18.9948 7.96079C18.9913 8.26235 18.9276 8.56018 18.8075 8.83678C18.6873 9.11339 18.5131 9.36319 18.295 9.5715L14.3333 13.5357C14.1685 13.7093 13.9932 13.8727 13.8083 14.0248C13.6161 14.1748 13.4094 14.3026 13.1883 14.4082C13.0017 14.4973 12.805 14.5623 12.5167 14.6582L10.78 15.2373C10.5919 15.3003 10.3901 15.3095 10.1971 15.2641C10.004 15.2186 9.82752 15.1203 9.6873 14.98C9.54708 14.8398 9.44873 14.6633 9.40328 14.4703C9.35783 14.2773 9.36708 14.0754 9.43 13.8873L9.9975 12.1873L10.0092 12.1515C10.1058 11.8623 10.1708 11.6665 10.26 11.4798C10.3647 11.2598 10.4933 11.0519 10.6433 10.8598C10.7708 10.6965 10.9167 10.5507 11.1325 10.3348L11.1583 10.309L15.095 6.3715ZM17.4117 7.25484C17.3176 7.1607 17.2058 7.08603 17.0829 7.03508C16.9599 6.98413 16.8281 6.95791 16.695 6.95791C16.5619 6.95791 16.4301 6.98413 16.3071 7.03508C16.1842 7.08603 16.0724 7.1607 15.9783 7.25484L15.8267 7.4065L15.855 7.49567C15.9333 7.72067 16.0825 8.02067 16.3642 8.30234C16.6134 8.55326 16.9213 8.73801 17.26 8.83984L17.4117 8.68817C17.5058 8.59407 17.5805 8.48234 17.6314 8.35938C17.6824 8.23641 17.7086 8.10461 17.7086 7.9715C17.7086 7.8384 17.6824 7.7066 17.6314 7.58363C17.5805 7.46067 17.5058 7.34894 17.4117 7.25484ZM16.305 9.79484C16.0003 9.63581 15.722 9.4306 15.48 9.1865C15.2359 8.94451 15.0307 8.66622 14.8717 8.3615L12.0417 11.1915C11.7908 11.4423 11.7025 11.5323 11.6283 11.6273C11.5339 11.7484 11.4536 11.8782 11.3875 12.0165C11.3358 12.1257 11.295 12.2448 11.1825 12.5815L10.8492 13.5815L11.085 13.8173L12.085 13.484C12.4217 13.3715 12.5408 13.3307 12.65 13.279C12.7878 13.2123 12.9175 13.1321 13.0392 13.0382C13.1342 12.964 13.2242 12.8757 13.475 12.6248L16.305 9.79484ZM6.04167 7.99984C6.04167 7.83408 6.10751 7.67511 6.22473 7.5579C6.34194 7.44069 6.50091 7.37484 6.66667 7.37484H12.0833C12.2491 7.37484 12.4081 7.44069 12.5253 7.5579C12.6425 7.67511 12.7083 7.83408 12.7083 7.99984C12.7083 8.1656 12.6425 8.32457 12.5253 8.44178C12.4081 8.55899 12.2491 8.62484 12.0833 8.62484H6.66667C6.50091 8.62484 6.34194 8.55899 6.22473 8.44178C6.10751 8.32457 6.04167 8.1656 6.04167 7.99984ZM6.04167 11.3332C6.04167 11.1674 6.10751 11.0084 6.22473 10.8912C6.34194 10.774 6.50091 10.7082 6.66667 10.7082H8.75C8.91576 10.7082 9.07473 10.774 9.19194 10.8912C9.30915 11.0084 9.375 11.1674 9.375 11.3332C9.375 11.4989 9.30915 11.6579 9.19194 11.7751C9.07473 11.8923 8.91576 11.9582 8.75 11.9582H6.66667C6.50091 11.9582 6.34194 11.8923 6.22473 11.7751C6.10751 11.6579 6.04167 11.4989 6.04167 11.3332ZM6.04167 14.6665C6.04167 14.5007 6.10751 14.3418 6.22473 14.2246C6.34194 14.1074 6.50091 14.0415 6.66667 14.0415H7.91667C8.08243 14.0415 8.2414 14.1074 8.35861 14.2246C8.47582 14.3418 8.54167 14.5007 8.54167 14.6665C8.54167 14.8323 8.47582 14.9912 8.35861 15.1084C8.2414 15.2257 8.08243 15.2915 7.91667 15.2915H6.66667C6.50091 15.2915 6.34194 15.2257 6.22473 15.1084C6.10751 14.9912 6.04167 14.8323 6.04167 14.6665Z" fill="#FD5C00"/>
</svg>
