<svg width="80" height="80" viewBox="0 0 80 80" fill="none" xmlns="http://www.w3.org/2000/svg">
<path d="M61.6668 69.9994C61.1668 69.9994 60.5002 69.8327 60.0002 69.4994C58.3335 68.666 57.8335 66.4994 58.6668 64.9994C58.6668 64.8327 64.8335 53.666 64.8335 39.9994C64.8335 26.3327 58.8335 14.9994 58.8335 14.9994C58.0002 13.3327 58.5002 11.3327 60.1668 10.4994C61.8335 9.66605 63.8335 10.166 64.6668 11.8327C65.0002 12.3327 71.8335 24.4994 71.8335 40.166C71.8335 55.8327 65.0002 67.9994 64.6668 68.4994C64.0002 69.3327 62.8335 69.9994 61.6668 69.9994ZM54.6668 59.666C54.8335 59.3327 58.3335 51.3327 58.3335 39.9994C58.3335 28.666 54.8335 20.666 54.6668 20.3327C54.0002 18.666 52.0002 17.8327 50.3335 18.666C48.6668 19.3327 47.8335 21.3327 48.6668 22.9994C48.6668 22.9994 51.6668 30.166 51.6668 39.9994C51.6668 49.8327 48.6668 56.9994 48.6668 56.9994C48.0002 58.666 48.6668 60.666 50.3335 61.3327C50.8335 61.4994 51.1668 61.666 51.6668 61.666C53.0002 61.666 54.1668 60.9994 54.6668 59.666ZM38.8335 54.9994C39.8335 54.8327 40.6668 54.166 41.1668 53.3327C41.3335 52.9994 45.0002 46.8327 45.0002 39.9994C45.0002 33.166 41.3335 26.8327 41.1668 26.666C40.1668 24.9994 38.1668 24.4994 36.6668 25.4994C35.0002 26.4994 34.5002 28.4994 35.5002 29.9994C35.5002 29.9994 38.3335 34.9994 38.3335 39.9994C38.3335 42.166 37.8335 44.4994 37.1668 46.166L15.5002 27.4994C14.6668 26.8327 13.5002 26.4994 12.5002 26.8327C11.5002 27.166 10.5002 27.8327 10.1668 28.9994C10.1668 29.166 8.3335 34.166 8.3335 39.9994C8.3335 45.8327 10.1668 50.8327 10.1668 51.166C10.8335 52.8327 12.6668 53.8327 14.5002 53.166C16.1668 52.4994 17.1668 50.666 16.5002 48.8327C16.5002 48.8327 15.0002 44.4994 15.0002 39.9994C15.0002 38.666 15.1668 37.3327 15.3335 36.1661L36.1668 54.166C36.8335 54.666 37.5002 54.9994 38.3335 54.9994H38.8335Z" fill="#ED1B2F"/>
</svg>
