<svg width="16" height="17" viewBox="0 0 16 17" fill="none" xmlns="http://www.w3.org/2000/svg">
<path d="M14 8.5V13.1667C14 13.5203 13.8595 13.8594 13.6095 14.1095C13.3594 14.3595 13.0203 14.5 12.6667 14.5H3.33333C2.97971 14.5 2.64057 14.3595 2.39052 14.1095C2.14048 13.8594 2 13.5203 2 13.1667V8.5H14ZM10.6667 2.5C10.8435 2.5 11.013 2.57024 11.1381 2.69526C11.2631 2.82029 11.3333 2.98986 11.3333 3.16667V3.83333H12.6667C13.0203 3.83333 13.3594 3.97381 13.6095 4.22386C13.8595 4.47391 14 4.81304 14 5.16667V7.16667H2V5.16667C2 4.81304 2.14048 4.47391 2.39052 4.22386C2.64057 3.97381 2.97971 3.83333 3.33333 3.83333H4.66667V3.16667C4.66667 2.98986 4.7369 2.82029 4.86193 2.69526C4.98695 2.57024 5.15652 2.5 5.33333 2.5C5.51014 2.5 5.67971 2.57024 5.80474 2.69526C5.92976 2.82029 6 2.98986 6 3.16667V3.83333H10V3.16667C10 2.98986 10.0702 2.82029 10.1953 2.69526C10.3203 2.57024 10.4899 2.5 10.6667 2.5Z" fill="#333333"/>
</svg>
