<svg width="325" height="254" viewBox="0 0 325 254" fill="none" xmlns="http://www.w3.org/2000/svg">
    <g clip-path="url(#clip0_147_879)">
        <path d="M218.419 34.0902L239.267 40.3975C240.804 40.8639 242.341 41.2192 243.9 41.5079C257.732 44.1952 262.566 49.1477 267.689 59.4081C273.101 70.2237 304.864 137.516 304.864 137.516L253.367 165.121C251.651 158.614 245.927 153.195 231.828 142.69C217.728 132.186 214.766 124.413 214.766 124.413C213.83 126.145 210.044 131.364 206.101 130.587C197.815 128.943 199.196 120.371 199.196 120.371C193.672 127.522 186.433 125.146 186.433 125.146C183.738 124.524 178.504 120.46 181.243 110.488C181.243 110.488 177.657 119.66 167.968 119.216C158.279 118.772 157.989 108.867 161.197 101.249C164.382 93.6316 169.639 81.8166 169.639 81.8166L218.419 34.0902Z" fill="white"/>
        <path d="M253.389 165.743C253.3 165.743 253.211 165.721 253.144 165.699C252.966 165.632 252.832 165.476 252.787 165.299C251.206 159.347 246.239 154.194 231.471 143.201C220.267 134.851 216.035 128.255 214.699 125.723C213.14 128.077 209.687 131.919 205.99 131.186C199.686 129.943 198.617 124.901 198.528 122.103C192.982 127.833 186.322 125.745 186.255 125.723C184.874 125.412 182.825 124.213 181.422 121.859C180.464 120.26 179.573 117.683 179.974 113.886C178.014 116.529 174.405 119.838 168.659 119.838C168.436 119.838 168.213 119.838 167.968 119.816C164.471 119.66 161.932 118.35 160.373 115.885C157.722 111.709 158.769 105.447 160.64 100.983C163.803 93.4317 169.037 81.6611 169.082 81.5501C169.104 81.4834 169.171 81.4168 169.215 81.3502L217.995 33.6016C218.151 33.4462 218.396 33.3796 218.619 33.4462L239.468 39.7534C240.782 40.1532 242.23 40.5085 244.056 40.8639C258.289 43.6399 263.212 48.9478 268.29 59.0971C273.658 69.8017 305.154 136.539 305.465 137.205C305.599 137.494 305.488 137.871 305.198 138.027L253.678 165.676C253.589 165.721 253.478 165.743 253.389 165.743ZM214.766 123.791C214.788 123.791 214.788 123.791 214.81 123.791C215.055 123.813 215.278 123.969 215.345 124.191C215.367 124.257 218.463 131.964 232.206 142.202C245.281 151.929 251.651 157.57 253.745 164.211L304.04 137.249C301.033 130.875 272.233 69.8683 267.132 59.6968C262.143 49.7251 257.599 44.8392 243.766 42.1298C241.918 41.7744 240.425 41.3969 239.067 40.9971L218.575 34.7787L170.151 82.1941C169.616 83.3934 164.761 94.3644 161.776 101.493C160.016 105.669 159.014 111.487 161.397 115.241C162.734 117.328 164.939 118.461 167.99 118.594C168.213 118.594 168.414 118.616 168.636 118.616C177.256 118.616 180.531 110.599 180.664 110.266C180.776 109.955 181.132 109.799 181.444 109.91C181.756 110.022 181.934 110.355 181.845 110.666C180.352 116.062 181.377 119.394 182.468 121.259C183.671 123.28 185.431 124.302 186.567 124.568C186.901 124.679 193.516 126.722 198.706 120.015C198.884 119.793 199.196 119.704 199.441 119.816C199.709 119.927 199.864 120.193 199.82 120.482C199.775 120.815 198.639 128.499 206.235 130.009C209.487 130.631 213.095 126.256 214.231 124.146C214.343 123.902 214.543 123.791 214.766 123.791Z" fill="#2A272E"/>
        <path d="M311.39 137.072C314.999 141.202 320.968 151.885 324.733 161.368C325.334 162.878 324.866 164.477 323.552 165.388C308.562 175.67 281.098 190.106 271.364 194.77C269.582 195.636 267.266 195.036 266.018 193.415C262.165 188.396 254.413 177.58 251.585 168.497C251.184 167.187 251.607 165.876 252.743 165.143C262.299 158.992 298.561 140.847 307.671 136.317C308.873 135.672 310.455 136.006 311.39 137.072Z" fill="#2A272E"/>
        <path d="M232.429 74.9985C232.407 74.9985 232.385 74.9985 232.34 74.9985C232.006 74.9541 231.761 74.6432 231.806 74.31C232.563 68.7579 240.826 67.1145 241.183 67.0478C241.517 66.9812 241.851 67.2033 241.918 67.5364C241.985 67.8695 241.762 68.2027 241.428 68.2693C241.339 68.2915 233.677 69.8239 233.053 74.4877C233.008 74.7764 232.741 74.9985 232.429 74.9985Z" fill="#2A272E"/>
        <path d="M199.219 120.97C199.085 120.97 198.973 120.926 198.862 120.859C198.573 120.659 198.528 120.26 198.728 119.993C198.773 119.949 202.56 114.596 203.985 105.669C204.03 105.335 204.364 105.091 204.698 105.158C205.032 105.202 205.277 105.535 205.21 105.868C203.74 115.107 199.909 120.504 199.731 120.726C199.597 120.882 199.419 120.97 199.219 120.97Z" fill="#2A272E"/>
        <path d="M181.31 111.065C181.199 111.065 181.088 111.043 180.976 110.976C180.687 110.799 180.598 110.399 180.776 110.11C180.82 110.022 185.765 102.137 188.594 91.0998C188.683 90.7666 189.017 90.5668 189.351 90.6556C189.685 90.7444 189.886 91.0776 189.797 91.4107C186.923 102.648 181.89 110.688 181.823 110.777C181.734 110.976 181.511 111.065 181.31 111.065Z" fill="#2A272E"/>
        <path d="M230.424 79.1737C230.892 81.5723 229.155 83.7043 226.549 83.9486L86.2448 96.5187C83.6388 96.7407 81.1441 94.9863 80.6763 92.5877L66.9333 22.4307C66.4655 20.0322 68.2029 17.8779 70.8089 17.6558L211.113 5.08576C213.697 4.86368 216.214 6.61816 216.681 9.01669L230.424 79.1737Z" fill="#E45300"/>
        <path d="M121.081 24.2518C121.304 25.3844 120.48 26.3838 119.255 26.4949L78.2931 30.1593C77.068 30.2703 75.8875 29.4486 75.6648 28.316C75.442 27.1833 76.2439 26.1839 77.4912 26.0729L118.453 22.4085C119.678 22.2752 120.859 23.1192 121.081 24.2518Z" fill="white"/>
        <path d="M131.194 75.8868C131.417 77.0195 130.592 78.0189 129.367 78.1299L88.4054 81.7943C87.1803 81.9054 85.9998 81.0837 85.7771 79.951C85.5543 78.8184 86.3785 77.819 87.6036 77.708L128.565 74.0435C129.813 73.9103 130.971 74.7542 131.194 75.8868Z" fill="white"/>
        <path d="M115.424 84.4816C115.557 85.1923 115.045 85.8141 114.288 85.8807L88.8064 88.1682C88.0491 88.2348 87.314 87.724 87.1804 87.0134C87.0467 86.3027 87.559 85.6808 88.3164 85.6142L113.82 83.3267C114.555 83.2601 115.29 83.7709 115.424 84.4816Z" fill="white"/>
        <path d="M181.444 71.3785C181.667 72.5111 180.843 73.5105 179.618 73.6216L138.656 77.286C137.431 77.397 136.25 76.5753 136.027 75.4427C135.805 74.31 136.606 73.3106 137.854 73.1996L178.816 69.5352C180.041 69.4241 181.221 70.2459 181.444 71.3785Z" fill="white"/>
        <path d="M206.569 31.3586L199.04 32.0248C196.122 32.2913 193.338 30.3148 192.804 27.6275L191.445 20.6762C190.91 17.989 192.848 15.5904 195.766 15.3239L203.295 14.6577C206.213 14.3912 208.997 16.3677 209.531 19.055L210.89 26.0063C211.425 28.6935 209.487 31.0921 206.569 31.3586Z" fill="white"/>
        <path d="M109.365 62.4284L87.0468 64.4272C85.4876 64.5605 83.9952 63.5166 83.7279 62.0731L83.5052 60.9849C83.2156 59.5413 84.2625 58.2754 85.8217 58.1422L108.14 56.1434C109.699 56.0101 111.192 57.0539 111.459 58.4975L111.682 59.5857C111.949 61.0071 110.924 62.2952 109.365 62.4284Z" fill="#2A272E"/>
        <path d="M143.467 59.3636L121.148 61.3624C119.589 61.4957 118.097 60.4519 117.829 59.0083L117.607 57.8979C117.317 56.4543 118.364 55.1884 119.923 55.0552L142.242 53.0564C143.801 52.9231 145.293 53.9669 145.561 55.4105L145.783 56.4987C146.051 57.9645 145.026 59.2304 143.467 59.3636Z" fill="#2A272E"/>
        <path d="M177.568 56.321L155.25 58.3198C153.69 58.4531 152.198 57.4093 151.931 55.9657L151.708 54.8775C151.419 53.4339 152.465 52.168 154.025 52.0348L176.343 50.036C177.902 49.9028 179.395 50.9466 179.662 52.3901L179.885 53.5006C180.174 54.8997 179.127 56.1656 177.568 56.321Z" fill="#2A272E"/>
        <path d="M211.67 53.2563L189.351 55.255C187.792 55.3883 186.3 54.3445 186.032 52.9009L185.81 51.7905C185.52 50.3469 186.567 49.0811 188.126 48.9478L210.445 46.949C212.004 46.8158 213.496 47.8596 213.764 49.3031L213.986 50.4136C214.276 51.8349 213.229 53.123 211.67 53.2563Z" fill="#2A272E"/>
        <path d="M214.766 124.413C214.766 124.413 207.883 114.041 206.413 105.513C203.74 89.101 197.437 82.0609 194.43 77.8856C191.423 73.7104 178.192 63.2502 172.401 55.4549C166.587 47.6597 167.79 39.2648 170.953 37.6436C177.011 34.912 189.262 37.5992 196.167 42.1742C203.05 46.7491 208.663 57.7646 216.837 64.8492C225.012 71.9337 236.594 76.4643 236.594 76.4643C236.594 76.4643 246.996 117.106 214.766 124.413Z" fill="white"/>
        <path d="M214.766 125.035C214.565 125.035 214.365 124.946 214.254 124.746C213.964 124.324 207.282 114.175 205.812 105.602C203.428 90.9443 198.105 83.8153 194.92 79.5513C194.563 79.0849 194.229 78.6407 193.94 78.2188C192.67 76.4643 189.507 73.5105 185.832 70.0904C180.865 65.471 175.252 60.252 171.911 55.7881C167.79 50.2803 167.211 44.6171 168.013 41.1526C168.481 39.1538 169.438 37.688 170.686 37.0662C177.145 34.1346 189.641 37.0662 196.524 41.6189C200.243 44.0841 203.562 48.3482 207.081 52.8565C210.222 56.8763 213.452 61.0515 217.283 64.3384C225.302 71.2453 236.75 75.798 236.862 75.8424C237.174 75.9757 237.329 76.331 237.218 76.6419C237.084 76.9529 236.728 77.1305 236.416 76.9973C236.305 76.9529 224.656 72.3335 216.481 65.2711C212.561 61.8954 209.287 57.6758 206.124 53.6116C202.671 49.1921 199.419 44.9947 195.878 42.6628C189.396 38.3765 177.256 35.4894 171.265 38.1766C170.374 38.6208 169.639 39.8201 169.26 41.4413C168.503 44.6393 169.082 49.8806 172.935 55.0552C176.21 59.4303 181.778 64.6271 186.701 69.2021C190.42 72.6666 193.65 75.6426 194.987 77.5081C195.276 77.9078 195.61 78.352 195.967 78.8184C199.219 83.1713 204.654 90.4335 207.081 105.402C208.507 113.708 215.278 123.969 215.345 124.057C215.546 124.346 215.456 124.724 215.167 124.923C215.011 124.99 214.9 125.035 214.766 125.035Z" fill="#2A272E"/>
        <path d="M172.356 54.6998C172.066 54.6998 171.799 54.6332 171.621 54.5444C171.309 54.3889 171.176 54.0336 171.331 53.7226C171.465 53.4117 171.844 53.2785 172.156 53.4339C172.222 53.4561 172.891 53.7004 173.648 52.5234C174.873 50.3914 178.637 47.0156 181.377 44.5505C182.58 43.4623 183.939 42.2408 184.273 41.8188C184.161 41.2636 183.226 39.5091 182.379 38.11C182.201 37.8213 182.29 37.4437 182.58 37.2661C182.869 37.0884 183.248 37.1772 183.426 37.4659C184.25 38.8207 185.587 41.197 185.52 42.0187C185.475 42.5073 184.941 43.0181 182.201 45.4832C179.506 47.8818 175.831 51.1909 174.717 53.1674C173.938 54.3667 173.024 54.6998 172.356 54.6998Z" fill="#2A272E"/>
        <path d="M247.486 13.2141C247.174 13.2141 246.885 12.992 246.818 12.6811L244.724 3.66442C244.635 3.28688 244.88 2.90933 245.236 2.8427C245.615 2.75387 245.972 2.99816 246.061 3.3535L248.154 12.3702C248.243 12.7477 247.998 13.1253 247.642 13.1919C247.575 13.1919 247.531 13.2141 247.486 13.2141Z" fill="#2A272E"/>
        <path d="M250.961 8.70579H241.918C241.539 8.70579 241.227 8.39487 241.227 8.01732C241.227 7.63978 241.539 7.32886 241.918 7.32886H250.961C251.34 7.32886 251.652 7.63978 251.652 8.01732C251.652 8.39487 251.34 8.70579 250.961 8.70579Z" fill="#2A272E"/>
        <path d="M187.079 151.885C186.767 151.885 186.478 151.663 186.411 151.352L184.317 142.335C184.228 141.958 184.473 141.58 184.83 141.513C185.23 141.425 185.587 141.669 185.654 142.024L187.747 151.041C187.837 151.418 187.591 151.796 187.235 151.863C187.191 151.863 187.146 151.885 187.079 151.885Z" fill="#2A272E"/>
        <path d="M190.554 147.376H181.533C181.154 147.376 180.843 147.065 180.843 146.688C180.843 146.31 181.154 145.999 181.533 145.999H190.576C190.955 145.999 191.267 146.31 191.267 146.688C191.244 147.065 190.933 147.376 190.554 147.376Z" fill="#2A272E"/>
        <path d="M292.747 231.192C289.985 231.658 288.359 234.123 289.116 236.677C289.874 239.231 292.703 240.941 295.465 240.453C298.227 239.986 299.853 237.521 299.095 234.967C298.338 232.413 295.509 230.725 292.747 231.192Z" fill="white"/>
        <path d="M182.157 241.585L189.129 234.634L185.342 236.033C185.765 234.345 185.832 232.524 185.476 230.659L144.581 19.0328C143.133 11.5263 135.359 6.01853 127.229 6.72921L31.0945 15.1463C30.5376 15.1907 29.9808 15.2795 29.4462 15.3906L27.8648 13.7693L23.4768 18.1C22.7195 18.6997 22.0513 19.3659 21.4499 20.0766C19.2893 22.7638 18.2869 26.295 19.022 30.0261L59.9171 241.652C61.3649 249.136 69.1385 254.666 77.2685 253.956L173.403 245.539C176.922 245.228 179.929 243.806 182.09 241.674L182.135 241.63C182.135 241.608 182.157 241.585 182.157 241.585Z" fill="#2A272E"/>
        <path d="M37.7988 8.4615C29.6911 9.17217 24.2562 15.857 25.704 23.3413L66.5991 234.967C68.0469 242.452 75.8205 247.981 83.9506 247.271L180.085 238.854C188.215 238.143 193.628 231.48 192.18 223.974L151.285 12.3702C149.837 4.8637 142.063 -0.644036 133.933 0.0666396L37.7988 8.4615Z" fill="#2A272E"/>
        <path d="M182.246 237.166C181.466 237.366 180.664 237.521 179.84 237.588L83.7055 246.005C80.164 246.316 76.5556 245.316 73.5708 243.207C70.5861 241.097 68.6037 238.121 67.9578 234.834L27.0627 23.2302C25.9268 17.3005 29.5129 11.815 35.6159 10.1716C36.3955 9.97168 37.2197 9.81622 38.0438 9.74959L134.178 1.33253C137.72 1.02161 141.328 2.02099 144.313 4.13081C147.298 6.24063 149.28 9.21659 149.904 12.4813L190.799 224.107C191.957 230.015 188.349 235.522 182.246 237.166Z" fill="#FD5C00"/>
        <path d="M71.544 227.705L184.384 217.778L146.14 20.4319L33.3218 30.3592L71.544 227.705Z" fill="#F4F5F0"/>
        <path d="M84.9308 46.6825L85.9108 46.5937C86.4009 46.5493 86.8464 46.8824 86.9354 47.3266L89.2297 59.0971C89.3188 59.5413 88.9847 59.9411 88.5169 59.9855L88.116 60.0299C87.8487 60.0521 87.5814 59.9633 87.3809 59.7856L79.0727 52.3901C78.8277 52.168 78.4491 52.3457 78.4936 52.6344L79.9191 59.9189C80.0082 60.363 79.6741 60.7628 79.2064 60.8072L78.2263 60.896C77.7363 60.9405 77.2908 60.6073 77.2017 60.1632L74.9075 48.4148C74.8184 47.9706 75.1525 47.5709 75.6203 47.5264L76.5335 47.4376C76.8008 47.4154 77.0681 47.5042 77.2908 47.6819L84.9308 54.3889C85.1758 54.611 85.5545 54.4333 85.5099 54.1446L84.218 47.5487C84.1289 47.1045 84.4408 46.7269 84.9308 46.6825Z" fill="#FD5C00"/>
        <path d="M92.7935 58.764L90.4993 47.0379C90.4102 46.5937 90.7443 46.1939 91.2121 46.1495L99.8544 45.3722C100.344 45.3278 100.79 45.6609 100.879 46.1051L101.035 46.9046C101.124 47.3488 100.79 47.7485 100.322 47.793L93.8181 48.3704C93.6622 48.3926 93.5508 48.5036 93.5954 48.6591L94.1968 51.7683C94.219 51.9238 94.375 52.0126 94.5309 52.0126L100.634 51.4796C101.124 51.4352 101.569 51.7683 101.659 52.2125L101.792 52.9231C101.881 53.3673 101.547 53.7671 101.079 53.8115L94.9764 54.3445C94.8204 54.3667 94.7091 54.4777 94.7536 54.6332L95.5109 58.4975C95.6 58.9417 95.2659 59.3414 94.7982 59.3859L93.8181 59.4747C93.3281 59.5413 92.8826 59.2082 92.7935 58.764Z" fill="#FD5C00"/>
        <path d="M117.918 55.0108C118.342 55.3217 118.431 55.8991 118.074 56.21C116.894 57.276 115.335 57.8757 113.575 58.0311C108.207 58.5197 105.267 55.2995 104.554 51.8349C103.864 48.3482 105.623 44.5727 110.858 44.1063C112.506 43.9509 114.176 44.3062 115.713 45.1501C116.181 45.4166 116.315 45.9718 116.003 46.3494L115.535 46.9046C115.29 47.2155 114.822 47.2599 114.421 47.0823C113.441 46.5937 112.35 46.416 111.325 46.5049C107.828 46.8158 106.781 49.3476 107.249 51.5906C107.695 53.8115 109.543 55.9879 113.107 55.677C114.132 55.5882 115.201 55.1662 115.981 54.5C116.292 54.2335 116.783 54.2112 117.139 54.4777L117.918 55.0108Z" fill="#FD5C00"/>
        <path d="M5.45693 83.9264C3.02906 83.9264 0.668017 82.0386 0.111167 79.6179C-0.178396 78.3742 0.0666185 77.2194 0.757113 76.331C1.44761 75.4649 2.49448 74.9985 3.69728 74.9985C6.12515 74.9985 8.48619 76.8862 9.04304 79.307C9.3326 80.5507 9.10987 81.7055 8.3971 82.5938C7.72888 83.46 6.682 83.9264 5.45693 83.9264ZM3.71956 76.3754C2.93997 76.3754 2.27174 76.6641 1.87081 77.1972C1.42533 77.7524 1.29169 78.5075 1.49215 79.3292C1.89309 81.0837 3.71956 82.5716 5.4792 82.5716C6.25879 82.5716 6.92701 82.2829 7.32794 81.7499C7.77342 81.1947 7.90707 80.4396 7.7066 79.6179C7.2834 77.819 5.50148 76.3754 3.71956 76.3754Z" fill="#2A272E"/>
    </g>
    <defs>
        <clipPath id="clip0_147_879">
            <rect width="325" height="254" fill="white"/>
        </clipPath>
    </defs>
</svg>
