<svg width="16" height="17" viewBox="0 0 16 17" fill="none" xmlns="http://www.w3.org/2000/svg">
    <g clip-path="url(#clip0_19_689)">
        <path d="M8.4 1.96666C8.2846 1.88011 8.14425 1.83333 8 1.83333C7.85575 1.83333 7.7154 1.88011 7.6 1.96666C7.32205 2.1792 7.06591 2.41882 6.83533 2.68199C6.48667 3.07466 6 3.73666 6 4.49999C6 5.03043 6.21071 5.53914 6.58579 5.91421C6.96086 6.28928 7.46957 6.49999 8 6.49999H4C3.46957 6.49999 2.96086 6.71071 2.58579 7.08578C2.21071 7.46085 2 7.96956 2 8.49999V9.83333C2 10.6573 2.94067 11.128 3.6 10.6333L4.04467 10.3C4.16006 10.2134 4.30042 10.1667 4.44467 10.1667C4.58891 10.1667 4.72927 10.2134 4.84467 10.3L5.022 10.4333C5.36819 10.693 5.78926 10.8333 6.222 10.8333C6.65474 10.8333 7.07581 10.693 7.422 10.4333L7.6 10.3C7.7154 10.2134 7.85575 10.1667 8 10.1667C8.14425 10.1667 8.2846 10.2134 8.4 10.3L8.578 10.4333C8.92419 10.693 9.34526 10.8333 9.778 10.8333C10.2107 10.8333 10.6318 10.693 10.978 10.4333L11.1553 10.3C11.2707 10.2134 11.4111 10.1667 11.5553 10.1667C11.6996 10.1667 11.8399 10.2134 11.9553 10.3L12.4 10.6333C13.0593 11.128 14 10.6573 14 9.83333V8.49999C14 7.96956 13.7893 7.46085 13.4142 7.08578C13.0391 6.71071 12.5304 6.49999 12 6.49999H8C8.53043 6.49999 9.03914 6.28928 9.41421 5.91421C9.78929 5.53914 10 5.03043 10 4.49999C10 3.73666 9.51333 3.07466 9.16467 2.68199C8.934 2.42199 8.678 2.17533 8.4 1.96666ZM2.66667 12.11V13.8333C2.66667 14.1869 2.80714 14.5261 3.05719 14.7761C3.30724 15.0262 3.64638 15.1667 4 15.1667H12C12.3536 15.1667 12.6928 15.0262 12.9428 14.7761C13.1929 14.5261 13.3333 14.1869 13.3333 13.8333V12.11C13.1782 12.1662 13.0114 12.1826 12.8484 12.1575C12.6853 12.1325 12.5311 12.0668 12.4 11.9667L11.9553 11.6333C11.8399 11.5468 11.6996 11.5 11.5553 11.5C11.4111 11.5 11.2707 11.5468 11.1553 11.6333L10.978 11.7667C10.6318 12.0263 10.2107 12.1667 9.778 12.1667C9.34526 12.1667 8.92419 12.0263 8.578 11.7667L8.4 11.6333C8.2846 11.5468 8.14425 11.5 8 11.5C7.85575 11.5 7.7154 11.5468 7.6 11.6333L7.422 11.7667C7.07581 12.0263 6.65474 12.1667 6.222 12.1667C5.78926 12.1667 5.36819 12.0263 5.022 11.7667L4.84467 11.6333C4.72927 11.5468 4.58891 11.5 4.44467 11.5C4.30042 11.5 4.16006 11.5468 4.04467 11.6333L3.6 11.9667C3.4689 12.0668 3.31472 12.1325 3.15164 12.1575C2.98855 12.1826 2.82179 12.1662 2.66667 12.11Z" fill="#333333"/>
    </g>
    <defs>
        <clipPath id="clip0_19_689">
            <rect width="16" height="16" fill="white" transform="translate(0 0.5)"/>
        </clipPath>
    </defs>
</svg>
