<svg width="16" height="17" viewBox="0 0 16 17" fill="none" xmlns="http://www.w3.org/2000/svg">
    <path d="M8 1.83333C9.5913 1.83333 11.1174 2.46547 12.2426 3.59069C13.3679 4.71591 14 6.24203 14 7.83333C14 9.88267 12.8827 11.56 11.7053 12.7633C11.117 13.3579 10.4752 13.8971 9.788 14.374L9.504 14.5673L9.37067 14.656L9.11933 14.816L8.89533 14.9527L8.618 15.114C8.42967 15.2212 8.2167 15.2776 8 15.2776C7.7833 15.2776 7.57033 15.2212 7.382 15.114L7.10467 14.9527L6.758 14.7393L6.63 14.656L6.35667 14.474C5.61532 13.9722 4.92471 13.3993 4.29467 12.7633C3.11733 11.5593 2 9.88267 2 7.83333C2 6.24203 2.63214 4.71591 3.75736 3.59069C4.88258 2.46547 6.4087 1.83333 8 1.83333ZM8 5.83333C7.73736 5.83333 7.47728 5.88506 7.23463 5.98557C6.99198 6.08608 6.7715 6.2334 6.58579 6.41912C6.40007 6.60484 6.25275 6.82531 6.15224 7.06797C6.05173 7.31062 6 7.57069 6 7.83333C6 8.09598 6.05173 8.35605 6.15224 8.5987C6.25275 8.84135 6.40007 9.06183 6.58579 9.24755C6.7715 9.43326 6.99198 9.58058 7.23463 9.68109C7.47728 9.7816 7.73736 9.83333 8 9.83333C8.53043 9.83333 9.03914 9.62262 9.41421 9.24755C9.78929 8.87247 10 8.36377 10 7.83333C10 7.3029 9.78929 6.79419 9.41421 6.41912C9.03914 6.04405 8.53043 5.83333 8 5.83333Z" fill="#333333"/>
</svg>
