<svg width="80" height="80" viewBox="0 0 80 80" fill="none" xmlns="http://www.w3.org/2000/svg">
    <path d="M54.8752 15L25.1452 15C25.4152 17.6 26.0452 19.34 26.6952 20.57C27.5202 22.12 28.6252 23.32 30.1052 24.6C30.6552 25.075 31.1452 25.47 31.7152 25.935L32.6502 26.69C33.7335 27.5516 34.756 28.4872 35.7102 29.49C37.9952 31.93 40.0002 35.315 40.0002 40C40.0002 35.31 42.0102 31.93 44.3002 29.485C45.2544 28.4822 46.2768 27.5466 47.3602 26.685L48.2952 25.935C48.8396 25.4977 49.3763 25.051 49.9052 24.595C51.3902 23.315 52.4952 22.12 53.3202 20.57C53.9702 19.335 54.6052 17.595 54.8752 15ZM64.9852 66.775C65.1052 71.595 61.0002 75 56.6002 75L23.4102 75C19.0102 75 14.9002 71.595 15.0202 66.775C15.1452 61.69 16.2202 57.82 17.8552 54.74C19.4802 51.67 21.5902 49.54 23.5552 47.84C24.2352 47.25 24.9352 46.69 25.5702 46.175L26.3052 45.575C27.049 44.9937 27.7508 44.3604 28.4052 43.68C29.4652 42.55 30.0002 41.5 30.0002 40C30.0002 38.5 29.4652 37.45 28.4002 36.32C27.8402 35.715 27.1502 35.115 26.3052 34.42L25.5702 33.82C24.9352 33.31 24.2352 32.75 23.5602 32.16C21.5952 30.46 19.4902 28.33 17.8602 25.26C16.2302 22.185 15.1552 18.315 15.0202 13.235C14.8952 8.41 19.0102 5 23.4152 5L56.6002 5C61.0002 5 65.1202 8.41 64.9902 13.235C64.8602 18.32 63.7852 22.185 62.1502 25.26C60.5152 28.335 58.4102 30.465 56.4452 32.16C55.7652 32.75 55.0702 33.31 54.4352 33.825L53.6952 34.425C52.8502 35.115 52.1602 35.715 51.5952 36.32C50.5402 37.45 50.0002 38.5 50.0002 40C50.0002 41.5 50.5402 42.55 51.6002 43.68C52.2544 44.3622 52.9562 44.9971 53.7002 45.58L54.4402 46.175C55.1192 46.719 55.7893 47.2741 56.4502 47.84C58.4152 49.54 60.5252 51.67 62.1552 54.74C63.7902 57.82 64.8602 61.69 64.9852 66.775ZM56.6002 70C58.6252 70 60.0352 68.5 59.9952 66.9C59.8852 62.48 58.9652 59.39 57.7452 57.085C56.5252 54.78 54.9102 53.11 53.1902 51.62C52.5752 51.09 51.9802 50.61 51.3752 50.12L50.5402 49.445C49.6652 48.73 48.7602 47.955 47.9552 47.095C46.2852 45.31 45.0052 43.095 45.0052 40C45.0052 36.91 46.2802 34.69 47.9552 32.9C48.7552 32.05 49.6602 31.275 50.5352 30.555L51.3752 29.875C51.9802 29.385 52.5752 28.91 53.1852 28.375C54.9052 26.89 56.5152 25.225 57.7452 22.915C58.9652 20.615 59.8902 17.525 60.0052 13.105C60.0452 11.505 58.6352 10 56.6102 10L23.4202 10C21.3952 10 19.9852 11.505 20.0252 13.105C20.1402 17.525 21.0602 20.615 22.2802 22.915C23.5102 25.225 25.1152 26.89 26.8352 28.38C27.4502 28.91 28.0352 29.39 28.6452 29.88L29.4802 30.555C30.3939 31.2773 31.256 32.0625 32.0602 32.905C33.7352 34.69 35.0102 36.905 35.0102 40C35.0102 43.09 33.7302 45.31 32.0602 47.1C31.2552 47.955 30.3502 48.73 29.4752 49.445L28.6402 50.12C28.0302 50.61 27.4402 51.09 26.8252 51.62C25.1052 53.11 23.4952 54.775 22.2702 57.085C21.0502 59.385 20.1302 62.48 20.0202 66.9C19.9802 68.5 21.3902 70 23.4102 70L56.6002 70Z" fill="#FD5C00"/>
</svg>
