<svg width="16" height="17" viewBox="0 0 16 17" fill="none" xmlns="http://www.w3.org/2000/svg">
    <path d="M9.24438 7.6075C9.27351 7.96457 9.19236 8.32199 9.01187 8.63146C8.83138 8.94094 8.56025 9.18756 8.23512 9.33802C7.90998 9.48848 7.5465 9.53552 7.19377 9.4728C6.84104 9.41007 6.51606 9.24059 6.26274 8.98726C6.00941 8.73394 5.83993 8.40896 5.7772 8.05623C5.71448 7.7035 5.76152 7.34002 5.91198 7.01488C6.06244 6.68975 6.30906 6.41862 6.61854 6.23813C6.92801 6.05764 7.28543 5.97649 7.6425 6.00562C8.05607 6.03937 8.4442 6.21898 8.73761 6.51239C9.03102 6.8058 9.21063 7.19393 9.24438 7.6075ZM13.5 3V14C13.5 14.2652 13.3946 14.5196 13.2071 14.7071C13.0196 14.8946 12.7652 15 12.5 15H3.5C3.23478 15 2.98043 14.8946 2.79289 14.7071C2.60536 14.5196 2.5 14.2652 2.5 14V3C2.5 2.73478 2.60536 2.48043 2.79289 2.29289C2.98043 2.10536 3.23478 2 3.5 2H12.5C12.7652 2 13.0196 2.10536 13.2071 2.29289C13.3946 2.48043 13.5 2.73478 13.5 3ZM11.75 4C11.75 3.86739 11.6973 3.74021 11.6036 3.64645C11.5098 3.55268 11.3826 3.5 11.25 3.5H9.51688C9.38763 3.49794 9.26241 3.54498 9.16648 3.63163C9.07055 3.71828 9.01106 3.83808 9 3.96688C8.99546 4.03527 9.00503 4.10386 9.02811 4.1684C9.0512 4.23294 9.08731 4.29205 9.1342 4.34204C9.18109 4.39204 9.23776 4.43186 9.30069 4.45903C9.36361 4.48621 9.43146 4.50015 9.5 4.5H10.0431L9.0575 5.48562C8.71996 5.25259 8.33457 5.09802 7.92956 5.03322C7.52454 4.96842 7.11016 4.99505 6.71677 5.11114C6.32337 5.22723 5.96093 5.42985 5.65599 5.70416C5.35104 5.97847 5.11132 6.31751 4.95438 6.69647C4.79744 7.07542 4.72726 7.48468 4.74897 7.89427C4.77069 8.30386 4.88375 8.70341 5.07987 9.06364C5.276 9.42388 5.55023 9.73568 5.88246 9.97621C6.2147 10.2167 6.59654 10.3799 7 10.4537V11.5H5.76687C5.63763 11.4979 5.51241 11.545 5.41648 11.6316C5.32055 11.7183 5.26106 11.8381 5.25 11.9669C5.24546 12.0353 5.25503 12.1039 5.27811 12.1684C5.3012 12.2329 5.33731 12.292 5.3842 12.342C5.43109 12.392 5.48776 12.4319 5.55069 12.459C5.61361 12.4862 5.68146 12.5002 5.75 12.5H7V13.4831C6.99841 13.6121 7.04564 13.7369 7.13223 13.8326C7.21882 13.9282 7.33836 13.9876 7.46688 13.9987C7.53527 14.0033 7.60386 13.9937 7.6684 13.9706C7.73294 13.9475 7.79205 13.9114 7.84204 13.8646C7.89204 13.8177 7.93186 13.761 7.95903 13.6981C7.98621 13.6351 8.00015 13.5673 8 13.4987V12.5H9.23312C9.36216 12.5017 9.48707 12.4546 9.58273 12.3679C9.67839 12.2813 9.7377 12.1617 9.74875 12.0331C9.75329 11.9647 9.74372 11.8961 9.72064 11.8316C9.69755 11.7671 9.66144 11.708 9.61455 11.658C9.56766 11.608 9.51099 11.5681 9.44806 11.541C9.38514 11.5138 9.31729 11.4998 9.24875 11.5H8V10.4537C8.45059 10.3702 8.87315 10.1753 9.22927 9.88689C9.5854 9.59846 9.8638 9.22561 10.0392 8.80221C10.2145 8.37882 10.2813 7.91831 10.2334 7.46255C10.1856 7.00678 10.0245 6.5702 9.765 6.1925L10.75 5.20687V5.73313C10.7481 5.86233 10.7952 5.98747 10.8818 6.08337C10.9684 6.17926 11.0881 6.2388 11.2169 6.25C11.2853 6.25454 11.3539 6.24497 11.4184 6.22189C11.4829 6.1988 11.542 6.16269 11.592 6.1158C11.642 6.06891 11.6819 6.01224 11.709 5.94931C11.7362 5.88639 11.7502 5.81854 11.75 5.75V4Z" fill="#333333"/>
</svg>
