<svg width="80" height="80" viewBox="0 0 80 80" fill="none" xmlns="http://www.w3.org/2000/svg">
    <mask id="path-1-inside-1_774_824" fill="white">
        <path d="M24 31C24 28.2386 26.2386 26 29 26H51C53.7614 26 56 28.2386 56 31V71C56 73.7614 53.7614 76 51 76H29C26.2386 76 24 73.7614 24 71V31Z"/>
    </mask>
    <path d="M24 31C24 28.2386 26.2386 26 29 26H51C53.7614 26 56 28.2386 56 31V71C56 73.7614 53.7614 76 51 76H29C26.2386 76 24 73.7614 24 71V31Z" fill="white"/>
    <path d="M21 31C21 26.5817 24.5817 23 29 23H51C55.4183 23 59 26.5817 59 31H53C53 29.8954 52.1046 29 51 29H29C27.8954 29 27 29.8954 27 31H21ZM56 76H24H56ZM29 76C24.5817 76 21 72.4183 21 68V31C21 26.5817 24.5817 23 29 23V29C27.8954 29 27 29.8954 27 31V71C27 73.7614 27.8954 76 29 76ZM51 23C55.4183 23 59 26.5817 59 31V68C59 72.4183 55.4183 76 51 76C52.1046 76 53 73.7614 53 71V31C53 29.8954 52.1046 29 51 29V23Z" fill="#FD5C00" mask="url(#path-1-inside-1_774_824)"/>
    <circle cx="40" cy="40" r="37" stroke="#FD5C00" stroke-width="6"/>
    <path d="M35 29H44V30C44 30.5523 43.5523 31 43 31H36C35.4477 31 35 30.5523 35 30V29Z" fill="#FD5C00"/>
</svg>
