<svg width="16" height="17" viewBox="0 0 16 17" fill="none" xmlns="http://www.w3.org/2000/svg">
    <path d="M7.99992 1.83325C11.6819 1.83325 14.6666 4.81792 14.6666 8.49992C14.6666 12.1819 11.6819 15.1666 7.99992 15.1666C4.31792 15.1666 1.33325 12.1819 1.33325 8.49992C1.33325 4.81792 4.31792 1.83325 7.99992 1.83325ZM10.6693 9.08525C10.4393 8.73525 10.2733 8.48325 9.64125 8.58325C8.44792 8.77258 8.31525 8.98125 8.25858 9.32525L8.24259 9.42925L8.22592 9.53992C8.16125 9.99525 8.16325 10.1673 8.37258 10.3866C9.21592 11.2719 9.72125 11.9099 9.87459 12.2833C9.94925 12.4653 10.1413 13.0166 10.0093 13.5619C10.8185 13.2396 11.5388 12.7282 12.1099 12.0706C12.1833 11.8213 12.2366 11.5106 12.2366 11.1346V11.0646C12.2366 10.4499 12.2366 10.1693 11.8019 9.92058C11.6622 9.84136 11.5187 9.76905 11.3719 9.70392C11.1273 9.59258 10.9653 9.51992 10.7466 9.19992C10.7202 9.16211 10.6944 9.12388 10.6693 9.08525ZM7.99992 3.05525C6.45525 3.05525 5.05992 3.69925 4.06925 4.73259C4.18725 4.81459 4.28992 4.92992 4.36058 5.08859C4.49659 5.39325 4.49659 5.70725 4.49659 5.98525C4.49659 6.20392 4.49659 6.41192 4.56659 6.56192C4.66259 6.76725 5.07725 6.85525 5.44325 6.93125C5.57458 6.95925 5.70925 6.98725 5.83192 7.02125C6.16925 7.11458 6.43058 7.41792 6.63925 7.66125C6.72592 7.76192 6.85458 7.91058 6.91925 7.94792C6.95258 7.92392 7.05992 7.80725 7.11258 7.61592C7.15392 7.46925 7.14192 7.33992 7.08258 7.26925C6.70925 6.82925 6.72992 5.98258 6.84525 5.66992C7.02658 5.17725 7.59325 5.21392 8.00792 5.24059C8.16258 5.25059 8.30792 5.26059 8.41725 5.24658C8.83192 5.19459 8.95992 4.56325 9.04992 4.43992C9.24458 4.17325 9.84058 3.77125 10.2099 3.52325C9.51425 3.21391 8.76126 3.05446 7.99992 3.05525Z" fill="black"/>
</svg>
