<svg width="16" height="17" viewBox="0 0 16 17" fill="none" xmlns="http://www.w3.org/2000/svg">
    <path fill-rule="evenodd" clip-rule="evenodd" d="M0 4.2333C0 3.80895 0.168571 3.40199 0.468629 3.10193C0.768687 2.80187 1.17565 2.6333 1.6 2.6333H14.4C14.8243 2.6333 15.2313 2.80187 15.5314 3.10193C15.8314 3.40199 16 3.80895 16 4.2333V12.7666C16 13.191 15.8314 13.5979 15.5314 13.898C15.2313 14.1981 14.8243 14.3666 14.4 14.3666H1.6C1.17565 14.3666 0.768687 14.1981 0.468629 13.898C0.168571 13.5979 0 13.191 0 12.7666L0 4.2333ZM3.2 6.89997C3.2 6.33417 3.42476 5.79155 3.82484 5.39147C4.22492 4.9914 4.76754 4.76663 5.33333 4.76663C5.89913 4.76663 6.44175 4.9914 6.84183 5.39147C7.24191 5.79155 7.46667 6.33417 7.46667 6.89997C7.46667 7.46576 7.24191 8.00838 6.84183 8.40846C6.44175 8.80854 5.89913 9.0333 5.33333 9.0333C4.76754 9.0333 4.22492 8.80854 3.82484 8.40846C3.42476 8.00838 3.2 7.46576 3.2 6.89997ZM12.8 6.89997H9.6V5.8333H12.8V6.89997ZM12.8 10.1H9.6V9.0333H12.8V10.1ZM5.33333 10.1C4.75351 10.1 4.18515 10.2614 3.69193 10.5662C3.1987 10.8711 2.8001 11.3072 2.5408 11.8258L2.1888 12.5277C2.14801 12.6091 2.12874 12.6996 2.13282 12.7905C2.1369 12.8815 2.16419 12.9699 2.21209 13.0473C2.25999 13.1247 2.32692 13.1886 2.40649 13.2328C2.48606 13.277 2.57563 13.3001 2.66667 13.3H8C8.09095 13.3 8.18039 13.2767 8.25981 13.2324C8.33924 13.1881 8.40601 13.1242 8.45379 13.0468C8.50157 12.9694 8.52877 12.8811 8.53279 12.7903C8.53682 12.6994 8.51755 12.609 8.4768 12.5277L8.12587 11.8258C7.86656 11.3072 7.46797 10.8711 6.97474 10.5662C6.48152 10.2614 5.91315 10.1 5.33333 10.1Z" fill="#333333"/>
</svg>
