<svg width="12" height="15" viewBox="0 0 12 15" fill="none" xmlns="http://www.w3.org/2000/svg">
    <path d="M6 0.833334C7.5913 0.833334 9.11742 1.46547 10.2426 2.59069C11.3679 3.71591 12 5.24204 12 6.83333C12 8.88267 10.8827 10.56 9.70533 11.7633C9.11701 12.3579 8.47519 12.8971 7.788 13.374L7.504 13.5673L7.37067 13.656L7.11933 13.816L6.89533 13.9527L6.618 14.114C6.42967 14.2212 6.2167 14.2776 6 14.2776C5.7833 14.2776 5.57033 14.2212 5.382 14.114L5.10467 13.9527L4.758 13.7393L4.63 13.656L4.35667 13.474C3.61532 12.9722 2.92471 12.3993 2.29467 11.7633C1.11733 10.5593 0 8.88267 0 6.83333C0 5.24204 0.632141 3.71591 1.75736 2.59069C2.88258 1.46547 4.4087 0.833334 6 0.833334ZM6 4.83333C5.73736 4.83333 5.47728 4.88507 5.23463 4.98557C4.99198 5.08608 4.7715 5.2334 4.58579 5.41912C4.40007 5.60484 4.25275 5.82532 4.15224 6.06797C4.05173 6.31062 4 6.57069 4 6.83333C4 7.09598 4.05173 7.35605 4.15224 7.5987C4.25275 7.84135 4.40007 8.06183 4.58579 8.24755C4.7715 8.43327 4.99198 8.58058 5.23463 8.68109C5.47728 8.7816 5.73736 8.83333 6 8.83333C6.53043 8.83333 7.03914 8.62262 7.41421 8.24755C7.78929 7.87248 8 7.36377 8 6.83333C8 6.3029 7.78929 5.79419 7.41421 5.41912C7.03914 5.04405 6.53043 4.83333 6 4.83333Z" fill="#333333"/>
</svg>
